<?xml version="1.0" encoding="utf-8"?>
<!-- Generator: Adobe Illustrator 27.5.0, SVG Export Plug-In . SVG Version: 6.00 Build 0)  -->
<svg version="1.1" xmlns="http://www.w3.org/2000/svg" xmlns:xlink="http://www.w3.org/1999/xlink" x="0px" y="0px"
	 viewBox="0 0 750 500.001" style="enable-background:new 0 0 750 500.001;" xml:space="preserve">
<g id="BACKGROUND">
	<g>
		<rect style="fill:#D8F2FF;" width="749.999" height="500.001"/>
		<g>
			<path style="fill:#95D5F9;" d="M716.187,455.157c10.043-97.772,13.391-221.871-63.602-289.559
				c-53.559-47.005-92.055-22.562-147.287-1.879C371.398,214.486,312.819,9.537,177.248,22.699
				C78.499,32.1,36.652,144.916,29.959,240.808c-5.021,63.931,3.647,148.126,23.435,214.35H716.187z"/>
		</g>
	</g>
</g>
<g id="OBJECTS">
	<g>
		<g>
			<g>
				<rect x="226.324" y="243.449" style="fill:#D8F2FF;" width="192.083" height="204.061"/>
			</g>
			<g>
				<g>
					<g>
						<path style="fill:#FFFFFF;" d="M259.961,291.468c0,1.852-1.5,3.355-3.353,3.355h-17.677c-1.851,0-3.354-1.504-3.354-3.355
							v-24.189c0-1.852,1.503-3.354,3.354-3.354h17.677c1.853,0,3.353,1.502,3.353,3.354V291.468z"/>
						<path style="fill:#B3E6FF;" d="M238.931,293.144c-0.923,0-1.677-0.752-1.677-1.676v-24.189c0-0.924,0.753-1.676,1.677-1.676
							h17.677c0.925,0,1.678,0.752,1.678,1.676v24.189c0,0.924-0.753,1.676-1.678,1.676H238.931z"/>
						<path style="fill:#D8F2FF;" d="M258.286,267.278c0-0.268-0.078-0.514-0.19-0.736l-20.842,20.844v4.082
							c0,0.924,0.753,1.676,1.677,1.676h4.167l15.188-15.184V267.278z"/>
					</g>
					<g>
						<path style="fill:#FFFFFF;" d="M292.364,291.468c0,1.852-1.501,3.355-3.354,3.355h-17.678c-1.852,0-3.353-1.504-3.353-3.355
							v-24.189c0-1.852,1.501-3.354,3.353-3.354h17.678c1.853,0,3.354,1.502,3.354,3.354V291.468z"/>
						<path style="fill:#B3E6FF;" d="M271.332,293.144c-0.923,0-1.676-0.752-1.676-1.676v-24.189c0-0.924,0.753-1.676,1.676-1.676
							h17.678c0.925,0,1.677,0.752,1.677,1.676v24.189c0,0.924-0.752,1.676-1.677,1.676H271.332z"/>
						<path style="fill:#D8F2FF;" d="M290.687,267.278c0-0.268-0.077-0.514-0.189-0.736l-20.842,20.844v4.082
							c0,0.924,0.753,1.676,1.676,1.676h4.168l15.187-15.184V267.278z"/>
					</g>
					<g>
						<path style="fill:#FFFFFF;" d="M324.764,291.468c0,1.852-1.501,3.355-3.353,3.355h-17.676c-1.853,0-3.355-1.504-3.355-3.355
							v-24.189c0-1.852,1.502-3.354,3.355-3.354h17.676c1.852,0,3.353,1.502,3.353,3.354V291.468z"/>
						<path style="fill:#B3E6FF;" d="M303.734,293.144c-0.926,0-1.678-0.752-1.678-1.676v-24.189c0-0.924,0.752-1.676,1.678-1.676
							h17.676c0.924,0,1.676,0.752,1.676,1.676v24.189c0,0.924-0.753,1.676-1.676,1.676H303.734z"/>
						<path style="fill:#D8F2FF;" d="M323.087,267.278c0-0.268-0.077-0.514-0.189-0.736l-20.842,20.844v4.082
							c0,0.924,0.752,1.676,1.678,1.676h4.168l15.185-15.184V267.278z"/>
					</g>
					<g>
						<path style="fill:#FFFFFF;" d="M357.165,291.468c0,1.852-1.501,3.355-3.353,3.355h-17.677c-1.852,0-3.354-1.504-3.354-3.355
							v-24.189c0-1.852,1.502-3.354,3.354-3.354h17.677c1.852,0,3.353,1.502,3.353,3.354V291.468z"/>
						<path style="fill:#B3E6FF;" d="M336.135,293.144c-0.924,0-1.678-0.752-1.678-1.676v-24.189c0-0.924,0.754-1.676,1.678-1.676
							h17.677c0.924,0,1.677,0.752,1.677,1.676v24.189c0,0.924-0.753,1.676-1.677,1.676H336.135z"/>
						<path style="fill:#D8F2FF;" d="M355.489,267.278c0-0.268-0.077-0.514-0.191-0.736l-20.841,20.844v4.082
							c0,0.924,0.754,1.676,1.678,1.676h4.168l15.186-15.184V267.278z"/>
					</g>
				</g>
				<g>
					<g>
						<path style="fill:#FFFFFF;" d="M259.961,331.32c0,1.852-1.5,3.354-3.353,3.354h-17.677c-1.851,0-3.354-1.503-3.354-3.354
							v-24.188c0-1.853,1.503-3.354,3.354-3.354h17.677c1.853,0,3.353,1.502,3.353,3.354V331.32z"/>
						<path style="fill:#B3E6FF;" d="M238.931,332.996c-0.923,0-1.677-0.752-1.677-1.676v-24.188c0-0.925,0.753-1.677,1.677-1.677
							h17.677c0.925,0,1.678,0.752,1.678,1.677v24.188c0,0.924-0.753,1.676-1.678,1.676H238.931z"/>
						<path style="fill:#D8F2FF;" d="M258.286,307.132c0-0.27-0.078-0.513-0.19-0.737l-20.842,20.843v4.083
							c0,0.924,0.753,1.676,1.677,1.676h4.167l15.188-15.185V307.132z"/>
					</g>
					<g>
						<path style="fill:#FFFFFF;" d="M292.364,331.32c0,1.852-1.501,3.354-3.354,3.354h-17.678c-1.852,0-3.353-1.503-3.353-3.354
							v-24.188c0-1.853,1.501-3.354,3.353-3.354h17.678c1.853,0,3.354,1.502,3.354,3.354V331.32z"/>
						<path style="fill:#B3E6FF;" d="M271.332,332.996c-0.923,0-1.676-0.752-1.676-1.676v-24.188c0-0.925,0.753-1.677,1.676-1.677
							h17.678c0.925,0,1.677,0.752,1.677,1.677v24.188c0,0.924-0.752,1.676-1.677,1.676H271.332z"/>
						<path style="fill:#D8F2FF;" d="M290.687,307.132c0-0.27-0.077-0.513-0.189-0.737l-20.842,20.843v4.083
							c0,0.924,0.753,1.676,1.676,1.676h4.168l15.187-15.185V307.132z"/>
					</g>
					<g>
						<path style="fill:#FFFFFF;" d="M324.764,331.32c0,1.852-1.501,3.354-3.353,3.354h-17.676c-1.853,0-3.355-1.503-3.355-3.354
							v-24.188c0-1.853,1.502-3.354,3.355-3.354h17.676c1.852,0,3.353,1.502,3.353,3.354V331.32z"/>
						<path style="fill:#B3E6FF;" d="M303.734,332.996c-0.926,0-1.678-0.752-1.678-1.676v-24.188c0-0.925,0.752-1.677,1.678-1.677
							h17.676c0.924,0,1.676,0.752,1.676,1.677v24.188c0,0.924-0.753,1.676-1.676,1.676H303.734z"/>
						<path style="fill:#D8F2FF;" d="M323.087,307.132c0-0.27-0.077-0.513-0.189-0.737l-20.842,20.843v4.083
							c0,0.924,0.752,1.676,1.678,1.676h4.168l15.185-15.185V307.132z"/>
					</g>
					<g>
						<path style="fill:#FFFFFF;" d="M357.165,331.32c0,1.852-1.501,3.354-3.353,3.354h-17.677c-1.852,0-3.354-1.503-3.354-3.354
							v-24.188c0-1.853,1.502-3.354,3.354-3.354h17.677c1.852,0,3.353,1.502,3.353,3.354V331.32z"/>
						<path style="fill:#B3E6FF;" d="M336.135,332.996c-0.924,0-1.678-0.752-1.678-1.676v-24.188c0-0.925,0.754-1.677,1.678-1.677
							h17.677c0.924,0,1.677,0.752,1.677,1.677v24.188c0,0.924-0.753,1.676-1.677,1.676H336.135z"/>
						<path style="fill:#D8F2FF;" d="M355.489,307.132c0-0.27-0.077-0.513-0.191-0.737l-20.841,20.843v4.083
							c0,0.924,0.754,1.676,1.678,1.676h4.168l15.186-15.185V307.132z"/>
					</g>
				</g>
				<g>
					<g>
						<path style="fill:#FFFFFF;" d="M259.961,371.173c0,1.852-1.5,3.354-3.353,3.354h-17.677c-1.851,0-3.354-1.503-3.354-3.354
							v-24.19c0-1.853,1.503-3.353,3.354-3.353h17.677c1.853,0,3.353,1.5,3.353,3.353V371.173z"/>
						<path style="fill:#B3E6FF;" d="M238.931,372.849c-0.923,0-1.677-0.752-1.677-1.676v-24.19c0-0.924,0.753-1.677,1.677-1.677
							h17.677c0.925,0,1.678,0.753,1.678,1.677v24.19c0,0.924-0.753,1.676-1.678,1.676H238.931z"/>
						<path style="fill:#D8F2FF;" d="M258.286,346.983c0-0.267-0.078-0.514-0.19-0.737l-20.842,20.844v4.083
							c0,0.924,0.753,1.676,1.677,1.676h4.167l15.188-15.186V346.983z"/>
					</g>
					<g>
						<path style="fill:#FFFFFF;" d="M292.364,371.173c0,1.852-1.501,3.354-3.354,3.354h-17.678c-1.852,0-3.353-1.503-3.353-3.354
							v-24.19c0-1.853,1.501-3.353,3.353-3.353h17.678c1.853,0,3.354,1.5,3.354,3.353V371.173z"/>
						<path style="fill:#B3E6FF;" d="M271.332,372.849c-0.923,0-1.676-0.752-1.676-1.676v-24.19c0-0.924,0.753-1.677,1.676-1.677
							h17.678c0.925,0,1.677,0.753,1.677,1.677v24.19c0,0.924-0.752,1.676-1.677,1.676H271.332z"/>
						<path style="fill:#D8F2FF;" d="M290.687,346.983c0-0.267-0.077-0.514-0.189-0.737l-20.842,20.844v4.083
							c0,0.924,0.753,1.676,1.676,1.676h4.168l15.187-15.186V346.983z"/>
					</g>
					<g>
						<path style="fill:#FFFFFF;" d="M324.764,371.173c0,1.852-1.501,3.354-3.353,3.354h-17.676c-1.853,0-3.355-1.503-3.355-3.354
							v-24.19c0-1.853,1.502-3.353,3.355-3.353h17.676c1.852,0,3.353,1.5,3.353,3.353V371.173z"/>
						<path style="fill:#B3E6FF;" d="M303.734,372.849c-0.926,0-1.678-0.752-1.678-1.676v-24.19c0-0.924,0.752-1.677,1.678-1.677
							h17.676c0.924,0,1.676,0.753,1.676,1.677v24.19c0,0.924-0.753,1.676-1.676,1.676H303.734z"/>
						<path style="fill:#D8F2FF;" d="M323.087,346.983c0-0.267-0.077-0.514-0.189-0.737l-20.842,20.844v4.083
							c0,0.924,0.752,1.676,1.678,1.676h4.168l15.185-15.186V346.983z"/>
					</g>
					<g>
						<path style="fill:#FFFFFF;" d="M357.165,371.173c0,1.852-1.501,3.354-3.353,3.354h-17.677c-1.852,0-3.354-1.503-3.354-3.354
							v-24.19c0-1.853,1.502-3.353,3.354-3.353h17.677c1.852,0,3.353,1.5,3.353,3.353V371.173z"/>
						<path style="fill:#B3E6FF;" d="M336.135,372.849c-0.924,0-1.678-0.752-1.678-1.676v-24.19c0-0.924,0.754-1.677,1.678-1.677
							h17.677c0.924,0,1.677,0.753,1.677,1.677v24.19c0,0.924-0.753,1.676-1.677,1.676H336.135z"/>
						<path style="fill:#D8F2FF;" d="M355.489,346.983c0-0.267-0.077-0.514-0.191-0.737l-20.841,20.844v4.083
							c0,0.924,0.754,1.676,1.678,1.676h4.168l15.186-15.186V346.983z"/>
					</g>
				</g>
				<g>
					<g>
						<path style="fill:#FFFFFF;" d="M259.961,411.023c0,1.854-1.5,3.355-3.353,3.355h-17.677c-1.851,0-3.354-1.502-3.354-3.355
							v-24.189c0-1.852,1.503-3.354,3.354-3.354h17.677c1.853,0,3.353,1.503,3.353,3.354V411.023z"/>
						<path style="fill:#B3E6FF;" d="M238.931,412.701c-0.923,0-1.677-0.753-1.677-1.678v-24.189c0-0.923,0.753-1.676,1.677-1.676
							h17.677c0.925,0,1.678,0.753,1.678,1.676v24.189c0,0.925-0.753,1.678-1.678,1.678H238.931z"/>
						<path style="fill:#D8F2FF;" d="M258.286,386.835c0-0.266-0.078-0.513-0.19-0.737l-20.842,20.845v4.081
							c0,0.925,0.753,1.678,1.677,1.678h4.167l15.188-15.186V386.835z"/>
					</g>
					<g>
						<path style="fill:#FFFFFF;" d="M292.364,411.023c0,1.854-1.501,3.355-3.354,3.355h-17.678c-1.852,0-3.353-1.502-3.353-3.355
							v-24.189c0-1.852,1.501-3.354,3.353-3.354h17.678c1.853,0,3.354,1.503,3.354,3.354V411.023z"/>
						<path style="fill:#B3E6FF;" d="M271.332,412.701c-0.923,0-1.676-0.753-1.676-1.678v-24.189c0-0.923,0.753-1.676,1.676-1.676
							h17.678c0.925,0,1.677,0.753,1.677,1.676v24.189c0,0.925-0.752,1.678-1.677,1.678H271.332z"/>
						<path style="fill:#D8F2FF;" d="M290.687,386.835c0-0.266-0.077-0.513-0.189-0.737l-20.842,20.845v4.081
							c0,0.925,0.753,1.678,1.676,1.678h4.168l15.187-15.186V386.835z"/>
					</g>
					<g>
						<path style="fill:#FFFFFF;" d="M324.764,411.023c0,1.854-1.501,3.355-3.353,3.355h-17.676c-1.853,0-3.355-1.502-3.355-3.355
							v-24.189c0-1.852,1.502-3.354,3.355-3.354h17.676c1.852,0,3.353,1.503,3.353,3.354V411.023z"/>
						<path style="fill:#B3E6FF;" d="M303.734,412.701c-0.926,0-1.678-0.753-1.678-1.678v-24.189c0-0.923,0.752-1.676,1.678-1.676
							h17.676c0.924,0,1.676,0.753,1.676,1.676v24.189c0,0.925-0.753,1.678-1.676,1.678H303.734z"/>
						<path style="fill:#D8F2FF;" d="M323.087,386.835c0-0.266-0.077-0.513-0.189-0.737l-20.842,20.845v4.081
							c0,0.925,0.752,1.678,1.678,1.678h4.168l15.185-15.186V386.835z"/>
					</g>
					<g>
						<path style="fill:#FFFFFF;" d="M357.165,411.023c0,1.854-1.501,3.355-3.353,3.355h-17.677c-1.852,0-3.354-1.502-3.354-3.355
							v-24.189c0-1.852,1.502-3.354,3.354-3.354h17.677c1.852,0,3.353,1.503,3.353,3.354V411.023z"/>
						<path style="fill:#B3E6FF;" d="M336.135,412.701c-0.924,0-1.678-0.753-1.678-1.678v-24.189c0-0.923,0.754-1.676,1.678-1.676
							h17.677c0.924,0,1.677,0.753,1.677,1.676v24.189c0,0.925-0.753,1.678-1.677,1.678H336.135z"/>
						<path style="fill:#D8F2FF;" d="M355.489,386.835c0-0.266-0.077-0.513-0.191-0.737l-20.841,20.845v4.081
							c0,0.925,0.754,1.678,1.678,1.678h4.168l15.186-15.186V386.835z"/>
					</g>
				</g>
			</g>
			<path style="fill:#FFFFFF;" d="M383.868,249.015c0,2.536-2.057,4.593-4.594,4.593H224.506c-2.537,0-4.594-2.057-4.594-4.593
				v-11.13c0-2.537,2.057-4.594,4.594-4.594h154.769c2.537,0,4.594,2.057,4.594,4.594V249.015z"/>
		</g>
		<g>
			<g>
				<rect x="541.413" y="188.258" style="fill:#D8F2FF;" width="128.414" height="136.42"/>
			</g>
			<g>
				<g>
					<g>
						<path style="fill:#FFFFFF;" d="M636.97,227.296c0,1.569,1.271,2.844,2.842,2.844h14.986c1.568,0,2.842-1.275,2.842-2.844
							V206.79c0-1.57-1.273-2.843-2.842-2.843h-14.986c-1.57,0-2.842,1.274-2.842,2.843V227.296z"/>
						<path style="fill:#B3E6FF;" d="M654.798,228.717c0.783,0,1.42-0.637,1.42-1.42V206.79c0-0.783-0.637-1.421-1.42-1.421h-14.986
							c-0.783,0-1.422,0.638-1.422,1.421v20.506c0,0.783,0.639,1.42,1.422,1.42H654.798z"/>
						<path style="fill:#D8F2FF;" d="M638.39,206.79c0-0.228,0.066-0.436,0.162-0.624l17.666,17.669v3.461
							c0,0.783-0.637,1.42-1.42,1.42h-3.533l-12.875-12.871V206.79z"/>
					</g>
					<g>
						<path style="fill:#FFFFFF;" d="M609.501,227.296c0,1.569,1.271,2.844,2.844,2.844h14.986c1.57,0,2.842-1.275,2.842-2.844
							V206.79c0-1.57-1.271-2.843-2.842-2.843h-14.986c-1.572,0-2.844,1.274-2.844,2.843V227.296z"/>
						<path style="fill:#B3E6FF;" d="M627.331,228.717c0.781,0,1.42-0.637,1.42-1.42V206.79c0-0.783-0.639-1.421-1.42-1.421h-14.986
							c-0.785,0-1.422,0.638-1.422,1.421v20.506c0,0.783,0.637,1.42,1.422,1.42H627.331z"/>
						<path style="fill:#D8F2FF;" d="M610.923,206.79c0-0.228,0.065-0.436,0.16-0.624l17.668,17.669v3.461
							c0,0.783-0.639,1.42-1.42,1.42h-3.535l-12.873-12.871V206.79z"/>
					</g>
					<g>
						<path style="fill:#FFFFFF;" d="M582.034,227.296c0,1.569,1.271,2.844,2.842,2.844h14.986c1.57,0,2.844-1.275,2.844-2.844
							V206.79c0-1.57-1.273-2.843-2.844-2.843h-14.986c-1.57,0-2.842,1.274-2.842,2.843V227.296z"/>
						<path style="fill:#B3E6FF;" d="M599.862,228.717c0.785,0,1.422-0.637,1.422-1.42V206.79c0-0.783-0.637-1.421-1.422-1.421
							h-14.986c-0.781,0-1.42,0.638-1.42,1.421v20.506c0,0.783,0.639,1.42,1.42,1.42H599.862z"/>
						<path style="fill:#D8F2FF;" d="M583.456,206.79c0-0.228,0.066-0.436,0.16-0.624l17.668,17.669v3.461
							c0,0.783-0.637,1.42-1.422,1.42h-3.533l-12.873-12.871V206.79z"/>
					</g>
					<g>
						<path style="fill:#FFFFFF;" d="M554.565,227.296c0,1.569,1.273,2.844,2.844,2.844h14.986c1.568,0,2.842-1.275,2.842-2.844
							V206.79c0-1.57-1.274-2.843-2.842-2.843h-14.986c-1.57,0-2.844,1.274-2.844,2.843V227.296z"/>
						<path style="fill:#B3E6FF;" d="M572.396,228.717c0.783,0,1.422-0.637,1.422-1.42V206.79c0-0.783-0.639-1.421-1.422-1.421
							h-14.986c-0.783,0-1.422,0.638-1.422,1.421v20.506c0,0.783,0.639,1.42,1.422,1.42H572.396z"/>
						<path style="fill:#D8F2FF;" d="M555.987,206.79c0-0.228,0.066-0.436,0.162-0.624l17.668,17.669v3.461
							c0,0.783-0.639,1.42-1.422,1.42h-3.533l-12.875-12.871V206.79z"/>
					</g>
				</g>
				<g>
					<g>
						<path style="fill:#FFFFFF;" d="M636.97,261.08c0,1.57,1.271,2.844,2.842,2.844h14.986c1.568,0,2.842-1.273,2.842-2.844
							v-20.505c0-1.57-1.273-2.844-2.842-2.844h-14.986c-1.57,0-2.842,1.274-2.842,2.844V261.08z"/>
						<path style="fill:#B3E6FF;" d="M654.798,262.501c0.783,0,1.42-0.638,1.42-1.421v-20.505c0-0.784-0.637-1.421-1.42-1.421
							h-14.986c-0.783,0-1.422,0.638-1.422,1.421v20.505c0,0.783,0.639,1.421,1.422,1.421H654.798z"/>
						<path style="fill:#D8F2FF;" d="M638.39,240.575c0-0.229,0.066-0.435,0.162-0.625l17.666,17.669v3.461
							c0,0.783-0.637,1.421-1.42,1.421h-3.533l-12.875-12.873V240.575z"/>
					</g>
					<g>
						<path style="fill:#FFFFFF;" d="M609.501,261.08c0,1.57,1.271,2.844,2.844,2.844h14.986c1.57,0,2.842-1.273,2.842-2.844
							v-20.505c0-1.57-1.271-2.844-2.842-2.844h-14.986c-1.572,0-2.844,1.274-2.844,2.844V261.08z"/>
						<path style="fill:#B3E6FF;" d="M627.331,262.501c0.781,0,1.42-0.638,1.42-1.421v-20.505c0-0.784-0.639-1.421-1.42-1.421
							h-14.986c-0.785,0-1.422,0.638-1.422,1.421v20.505c0,0.783,0.637,1.421,1.422,1.421H627.331z"/>
						<path style="fill:#D8F2FF;" d="M610.923,240.575c0-0.229,0.065-0.435,0.16-0.625l17.668,17.669v3.461
							c0,0.783-0.639,1.421-1.42,1.421h-3.535l-12.873-12.873V240.575z"/>
					</g>
					<g>
						<path style="fill:#FFFFFF;" d="M582.034,261.08c0,1.57,1.271,2.844,2.842,2.844h14.986c1.57,0,2.844-1.273,2.844-2.844
							v-20.505c0-1.57-1.273-2.844-2.844-2.844h-14.986c-1.57,0-2.842,1.274-2.842,2.844V261.08z"/>
						<path style="fill:#B3E6FF;" d="M599.862,262.501c0.785,0,1.422-0.638,1.422-1.421v-20.505c0-0.784-0.637-1.421-1.422-1.421
							h-14.986c-0.781,0-1.42,0.638-1.42,1.421v20.505c0,0.783,0.639,1.421,1.42,1.421H599.862z"/>
						<path style="fill:#D8F2FF;" d="M583.456,240.575c0-0.229,0.066-0.435,0.16-0.625l17.668,17.669v3.461
							c0,0.783-0.637,1.421-1.422,1.421h-3.533l-12.873-12.873V240.575z"/>
					</g>
					<g>
						<path style="fill:#FFFFFF;" d="M554.565,261.08c0,1.57,1.273,2.844,2.844,2.844h14.986c1.568,0,2.842-1.273,2.842-2.844
							v-20.505c0-1.57-1.274-2.844-2.842-2.844h-14.986c-1.57,0-2.844,1.274-2.844,2.844V261.08z"/>
						<path style="fill:#B3E6FF;" d="M572.396,262.501c0.783,0,1.422-0.638,1.422-1.421v-20.505c0-0.784-0.639-1.421-1.422-1.421
							h-14.986c-0.783,0-1.422,0.638-1.422,1.421v20.505c0,0.783,0.639,1.421,1.422,1.421H572.396z"/>
						<path style="fill:#D8F2FF;" d="M555.987,240.575c0-0.229,0.066-0.435,0.162-0.625l17.668,17.669v3.461
							c0,0.783-0.639,1.421-1.422,1.421h-3.533l-12.875-12.873V240.575z"/>
					</g>
				</g>
				<g>
					<g>
						<path style="fill:#FFFFFF;" d="M636.97,294.864c0,1.57,1.271,2.844,2.842,2.844h14.986c1.568,0,2.842-1.273,2.842-2.844
							v-20.507c0-1.569-1.273-2.842-2.842-2.842h-14.986c-1.57,0-2.842,1.272-2.842,2.842V294.864z"/>
						<path style="fill:#B3E6FF;" d="M654.798,296.286c0.783,0,1.42-0.638,1.42-1.422v-20.507c0-0.782-0.637-1.42-1.42-1.42h-14.986
							c-0.783,0-1.422,0.638-1.422,1.42v20.507c0,0.784,0.639,1.422,1.422,1.422H654.798z"/>
						<path style="fill:#D8F2FF;" d="M638.39,274.358c0-0.225,0.066-0.435,0.162-0.624l17.666,17.67v3.461
							c0,0.784-0.637,1.422-1.42,1.422h-3.533l-12.875-12.874V274.358z"/>
					</g>
					<g>
						<path style="fill:#FFFFFF;" d="M609.501,294.864c0,1.57,1.271,2.844,2.844,2.844h14.986c1.57,0,2.842-1.273,2.842-2.844
							v-20.507c0-1.569-1.271-2.842-2.842-2.842h-14.986c-1.572,0-2.844,1.272-2.844,2.842V294.864z"/>
						<path style="fill:#B3E6FF;" d="M627.331,296.286c0.781,0,1.42-0.638,1.42-1.422v-20.507c0-0.782-0.639-1.42-1.42-1.42h-14.986
							c-0.785,0-1.422,0.638-1.422,1.42v20.507c0,0.784,0.637,1.422,1.422,1.422H627.331z"/>
						<path style="fill:#D8F2FF;" d="M610.923,274.358c0-0.225,0.065-0.435,0.16-0.624l17.668,17.67v3.461
							c0,0.784-0.639,1.422-1.42,1.422h-3.535l-12.873-12.874V274.358z"/>
					</g>
					<g>
						<path style="fill:#FFFFFF;" d="M582.034,294.864c0,1.57,1.271,2.844,2.842,2.844h14.986c1.57,0,2.844-1.273,2.844-2.844
							v-20.507c0-1.569-1.273-2.842-2.844-2.842h-14.986c-1.57,0-2.842,1.272-2.842,2.842V294.864z"/>
						<path style="fill:#B3E6FF;" d="M599.862,296.286c0.785,0,1.422-0.638,1.422-1.422v-20.507c0-0.782-0.637-1.42-1.422-1.42
							h-14.986c-0.781,0-1.42,0.638-1.42,1.42v20.507c0,0.784,0.639,1.422,1.42,1.422H599.862z"/>
						<path style="fill:#D8F2FF;" d="M583.456,274.358c0-0.225,0.066-0.435,0.16-0.624l17.668,17.67v3.461
							c0,0.784-0.637,1.422-1.422,1.422h-3.533l-12.873-12.874V274.358z"/>
					</g>
					<g>
						<path style="fill:#FFFFFF;" d="M554.565,294.864c0,1.57,1.273,2.844,2.844,2.844h14.986c1.568,0,2.842-1.273,2.842-2.844
							v-20.507c0-1.569-1.274-2.842-2.842-2.842h-14.986c-1.57,0-2.844,1.272-2.844,2.842V294.864z"/>
						<path style="fill:#B3E6FF;" d="M572.396,296.286c0.783,0,1.422-0.638,1.422-1.422v-20.507c0-0.782-0.639-1.42-1.422-1.42
							h-14.986c-0.783,0-1.422,0.638-1.422,1.42v20.507c0,0.784,0.639,1.422,1.422,1.422H572.396z"/>
						<path style="fill:#D8F2FF;" d="M555.987,274.358c0-0.225,0.066-0.435,0.162-0.624l17.668,17.67v3.461
							c0,0.784-0.639,1.422-1.422,1.422h-3.533l-12.875-12.874V274.358z"/>
					</g>
				</g>
			</g>
			<path style="fill:#FFFFFF;" d="M532.888,191.979c0,1.695,1.375,3.07,3.07,3.07h135.084c1.697,0,3.072-1.375,3.072-3.07v-7.441
				c0-1.696-1.375-3.071-3.072-3.071H535.958c-1.695,0-3.07,1.375-3.07,3.071V191.979z"/>
		</g>
		<g>
			<rect x="511.722" y="312.867" style="fill:#D8F2FF;" width="192.084" height="134.643"/>
			<path style="fill:#FFFFFF;" d="M709.261,321.27c0,2.538-2.059,4.595-4.594,4.595H540.554c-2.537,0-4.596-2.057-4.596-4.595
				v-9.397c0-2.536,2.059-4.594,4.596-4.594h164.113c2.535,0,4.594,2.058,4.594,4.594V321.27z"/>
			<g>
				<g>
					<g>
						<path style="fill:#FFFFFF;" d="M589.495,365.864c0,1.939-1.572,3.509-3.508,3.509h-18.494c-1.938,0-3.508-1.57-3.508-3.509
							v-25.307c0-1.939,1.57-3.509,3.508-3.509h18.494c1.935,0,3.508,1.57,3.508,3.509V365.864z"/>
						<path style="fill:#B3E6FF;" d="M567.493,367.618c-0.967,0-1.754-0.787-1.754-1.754v-25.307c0-0.967,0.787-1.754,1.754-1.754
							h18.494c0.967,0,1.754,0.787,1.754,1.754v25.307c0,0.967-0.787,1.754-1.754,1.754H567.493z"/>
						<path style="fill:#D8F2FF;" d="M587.741,340.558c0-0.281-0.08-0.537-0.197-0.772l-21.805,21.806v4.272
							c0,0.967,0.787,1.754,1.754,1.754h4.359l15.889-15.887V340.558z"/>
					</g>
					<g>
						<path style="fill:#FFFFFF;" d="M623.392,365.864c0,1.939-1.57,3.509-3.508,3.509h-18.492c-1.938,0-3.508-1.57-3.508-3.509
							v-25.307c0-1.939,1.57-3.509,3.508-3.509h18.492c1.938,0,3.508,1.57,3.508,3.509V365.864z"/>
						<path style="fill:#B3E6FF;" d="M601.392,367.618c-0.969,0-1.756-0.787-1.756-1.754v-25.307c0-0.967,0.787-1.754,1.756-1.754
							h18.492c0.967,0,1.756,0.787,1.756,1.754v25.307c0,0.967-0.789,1.754-1.756,1.754H601.392z"/>
						<path style="fill:#D8F2FF;" d="M621.64,340.558c0-0.281-0.082-0.537-0.199-0.772l-21.805,21.806v4.272
							c0,0.967,0.787,1.754,1.756,1.754h4.359l15.889-15.887V340.558z"/>
					</g>
					<g>
						<path style="fill:#FFFFFF;" d="M657.288,365.864c0,1.939-1.568,3.509-3.508,3.509h-18.492c-1.938,0-3.51-1.57-3.51-3.509
							v-25.307c0-1.939,1.572-3.509,3.51-3.509h18.492c1.94,0,3.508,1.57,3.508,3.509V365.864z"/>
						<path style="fill:#B3E6FF;" d="M635.288,367.618c-0.967,0-1.754-0.787-1.754-1.754v-25.307c0-0.967,0.787-1.754,1.754-1.754
							h18.492c0.967,0,1.756,0.787,1.756,1.754v25.307c0,0.967-0.789,1.754-1.756,1.754H635.288z"/>
						<path style="fill:#D8F2FF;" d="M655.536,340.558c0-0.281-0.082-0.537-0.199-0.772l-21.803,21.806v4.272
							c0,0.967,0.787,1.754,1.754,1.754h4.359l15.889-15.887V340.558z"/>
					</g>
					<g>
						<path style="fill:#FFFFFF;" d="M691.187,365.864c0,1.939-1.57,3.509-3.508,3.509h-18.492c-1.94,0-3.512-1.57-3.512-3.509
							v-25.307c0-1.939,1.572-3.509,3.512-3.509h18.492c1.938,0,3.508,1.57,3.508,3.509V365.864z"/>
						<path style="fill:#B3E6FF;" d="M669.187,367.618c-0.967,0-1.758-0.787-1.758-1.754v-25.307c0-0.967,0.791-1.754,1.758-1.754
							h18.492c0.967,0,1.754,0.787,1.754,1.754v25.307c0,0.967-0.787,1.754-1.754,1.754H669.187z"/>
						<path style="fill:#D8F2FF;" d="M689.433,340.558c0-0.281-0.082-0.537-0.199-0.772l-21.805,21.806v4.272
							c0,0.967,0.791,1.754,1.758,1.754h4.359l15.887-15.887V340.558z"/>
					</g>
				</g>
				<g>
					<g>
						<path style="fill:#FFFFFF;" d="M589.495,416.713c0,1.937-1.572,3.506-3.508,3.506h-18.494c-1.938,0-3.508-1.569-3.508-3.506
							v-25.309c0-1.938,1.57-3.508,3.508-3.508h18.494c1.935,0,3.508,1.57,3.508,3.508V416.713z"/>
						<path style="fill:#B3E6FF;" d="M567.493,418.466c-0.967,0-1.754-0.787-1.754-1.753v-25.309c0-0.966,0.787-1.755,1.754-1.755
							h18.494c0.967,0,1.754,0.789,1.754,1.755v25.309c0,0.966-0.787,1.753-1.754,1.753H567.493z"/>
						<path style="fill:#D8F2FF;" d="M587.741,391.404c0-0.28-0.08-0.536-0.197-0.771l-21.805,21.806v4.273
							c0,0.966,0.787,1.753,1.754,1.753h4.359l15.889-15.887V391.404z"/>
					</g>
					<g>
						<path style="fill:#FFFFFF;" d="M623.392,416.713c0,1.937-1.57,3.506-3.508,3.506h-18.492c-1.938,0-3.508-1.569-3.508-3.506
							v-25.309c0-1.938,1.57-3.508,3.508-3.508h18.492c1.938,0,3.508,1.57,3.508,3.508V416.713z"/>
						<path style="fill:#B3E6FF;" d="M601.392,418.466c-0.969,0-1.756-0.787-1.756-1.753v-25.309c0-0.966,0.787-1.755,1.756-1.755
							h18.492c0.967,0,1.756,0.789,1.756,1.755v25.309c0,0.966-0.789,1.753-1.756,1.753H601.392z"/>
						<path style="fill:#D8F2FF;" d="M621.64,391.404c0-0.28-0.082-0.536-0.199-0.771l-21.805,21.806v4.273
							c0,0.966,0.787,1.753,1.756,1.753h4.359l15.889-15.887V391.404z"/>
					</g>
					<g>
						<path style="fill:#FFFFFF;" d="M657.288,416.713c0,1.937-1.568,3.506-3.508,3.506h-18.492c-1.938,0-3.51-1.569-3.51-3.506
							v-25.309c0-1.938,1.572-3.508,3.51-3.508h18.492c1.94,0,3.508,1.57,3.508,3.508V416.713z"/>
						<path style="fill:#B3E6FF;" d="M635.288,418.466c-0.967,0-1.754-0.787-1.754-1.753v-25.309c0-0.966,0.787-1.755,1.754-1.755
							h18.492c0.967,0,1.756,0.789,1.756,1.755v25.309c0,0.966-0.789,1.753-1.756,1.753H635.288z"/>
						<path style="fill:#D8F2FF;" d="M655.536,391.404c0-0.28-0.082-0.536-0.199-0.771l-21.803,21.806v4.273
							c0,0.966,0.787,1.753,1.754,1.753h4.359l15.889-15.887V391.404z"/>
					</g>
					<g>
						<path style="fill:#FFFFFF;" d="M691.187,416.713c0,1.937-1.57,3.506-3.508,3.506h-18.492c-1.94,0-3.512-1.569-3.512-3.506
							v-25.309c0-1.938,1.572-3.508,3.512-3.508h18.492c1.938,0,3.508,1.57,3.508,3.508V416.713z"/>
						<path style="fill:#B3E6FF;" d="M669.187,418.466c-0.967,0-1.758-0.787-1.758-1.753v-25.309c0-0.966,0.791-1.755,1.758-1.755
							h18.492c0.967,0,1.754,0.789,1.754,1.755v25.309c0,0.966-0.787,1.753-1.754,1.753H669.187z"/>
						<path style="fill:#D8F2FF;" d="M689.433,391.404c0-0.28-0.082-0.536-0.199-0.771l-21.805,21.806v4.273
							c0,0.966,0.791,1.753,1.758,1.753h4.359l15.887-15.887V391.404z"/>
					</g>
				</g>
			</g>
		</g>
		<g>
			<rect x="361.426" y="168.27" style="fill:#4CB7DB;" width="182.39" height="183.869"/>
			<path style="fill:#FFFFFF;" d="M548.661,173.96c0,2.611-2.057,4.729-4.592,4.729H361.172c-2.537,0-4.594-2.118-4.594-4.729
				v-13.67c0-2.612,2.057-4.729,4.594-4.729h182.897c2.535,0,4.592,2.117,4.592,4.729V173.96z"/>
			<rect x="359.003" y="358.043" style="fill:#95D5F9;" width="187.237" height="89.467"/>
			<path style="fill:#FFFFFF;" d="M555.313,358.043c0,2.611-2.057,4.729-4.594,4.729H354.521c-2.536,0-4.593-2.118-4.593-4.729
				v-11.804c0-2.612,2.057-4.73,4.593-4.73H550.72c2.537,0,4.594,2.118,4.594,4.73V358.043z"/>
			<g>
				<path style="fill:#FFFFFF;" d="M520.532,225.079c0,2.612-2.25,4.729-5.023,4.729H389.732c-2.775,0-5.023-2.117-5.023-4.729
					v-34.203c0-2.612,2.248-4.729,5.023-4.729h125.777c2.773,0,5.023,2.118,5.023,4.729V225.079z"/>
				<path style="fill:#B3E6FF;" d="M389.732,227.444c-1.385,0-2.512-1.06-2.512-2.365v-34.203c0-1.305,1.127-2.365,2.512-2.365
					h125.777c1.385,0,2.512,1.06,2.512,2.365v34.203c0,1.305-1.127,2.365-2.512,2.365H389.732z"/>
				<g>
					<path style="fill:#D8F2FF;" d="M442.897,188.512l-55.678,35.644v0.924c0,1.305,1.127,2.365,2.512,2.365h5.65l60.814-38.932
						H442.897z"/>
					<polygon style="fill:#D8F2FF;" points="478.198,188.512 417.382,227.444 449.323,227.444 510.14,188.512 					"/>
				</g>
			</g>
			<g>
				<path style="fill:#FFFFFF;" d="M520.532,278.615c0,2.614-2.25,4.729-5.023,4.729H389.732c-2.775,0-5.023-2.115-5.023-4.729
					v-34.203c0-2.609,2.248-4.728,5.023-4.728h125.777c2.773,0,5.023,2.119,5.023,4.728V278.615z"/>
				<path style="fill:#B3E6FF;" d="M389.732,280.982c-1.385,0-2.512-1.058-2.512-2.366v-34.203c0-1.301,1.127-2.363,2.512-2.363
					h125.777c1.385,0,2.512,1.062,2.512,2.363v34.203c0,1.309-1.127,2.366-2.512,2.366H389.732z"/>
				<g>
					<path style="fill:#D8F2FF;" d="M442.897,242.049l-55.678,35.643v0.923c0,1.309,1.127,2.366,2.512,2.366h5.65l60.814-38.932
						H442.897z"/>
					<polygon style="fill:#D8F2FF;" points="478.198,242.049 417.382,280.982 449.323,280.982 510.14,242.049 					"/>
				</g>
			</g>
			<g>
				<path style="fill:#FFFFFF;" d="M520.532,332.155c0,2.611-2.25,4.728-5.023,4.728H389.732c-2.775,0-5.023-2.116-5.023-4.728
					v-34.202c0-2.612,2.248-4.73,5.023-4.73h125.777c2.773,0,5.023,2.118,5.023,4.73V332.155z"/>
				<path style="fill:#B3E6FF;" d="M389.732,334.521c-1.385,0-2.512-1.061-2.512-2.365v-34.202c0-1.305,1.127-2.365,2.512-2.365
					h125.777c1.385,0,2.512,1.061,2.512,2.365v34.202c0,1.304-1.127,2.365-2.512,2.365H389.732z"/>
				<g>
					<path style="fill:#D8F2FF;" d="M442.897,295.588l-55.678,35.644v0.924c0,1.304,1.127,2.365,2.512,2.365h5.65l60.814-38.933
						H442.897z"/>
					<polygon style="fill:#D8F2FF;" points="478.198,295.588 417.382,334.521 449.323,334.521 510.14,295.588 					"/>
				</g>
			</g>
			<g>
				<path style="fill:#FFFFFF;" d="M384.708,447.51v-67.466c0-2.612,2.248-4.729,5.023-4.729h125.777
					c2.773,0,5.023,2.117,5.023,4.729v67.466H384.708z"/>
				<path style="fill:#B3E6FF;" d="M387.22,447.51v-67.466c0-1.305,1.127-2.364,2.512-2.364h125.777c1.385,0,2.512,1.06,2.512,2.364
					v67.466H387.22z"/>
				<g>
					<polygon style="fill:#D8F2FF;" points="413.976,377.68 387.22,400.381 387.22,409.572 424.808,377.68 					"/>
					<polygon style="fill:#D8F2FF;" points="461.853,377.68 387.22,441.002 387.22,447.51 404.829,447.51 487.136,377.68 					"/>
					<path style="fill:#D8F2FF;" d="M518.021,380.044c0-0.203-0.072-0.385-0.123-0.575l-80.195,68.041h10.834l69.484-58.955V380.044
						z"/>
				</g>
				<rect x="451.331" y="376.66" style="fill:#FFFFFF;" width="2.578" height="70.85"/>
				<g>
					<rect x="485.222" y="376.66" style="fill:#FFFFFF;" width="2.578" height="70.85"/>
					<rect x="451.331" y="376.66" style="fill:#FFFFFF;" width="2.578" height="70.85"/>
					<rect x="417.438" y="376.66" style="fill:#FFFFFF;" width="2.58" height="70.85"/>
				</g>
			</g>
			<g>
				<path style="fill:#4CB7DB;" d="M469.44,155.561c0,9.291-7.529,16.821-16.82,16.821c-9.289,0-16.82-7.53-16.82-16.821
					c0-9.29,7.531-16.82,16.82-16.82C461.911,138.74,469.44,146.271,469.44,155.561z"/>
				<path style="fill:#95D5F9;" d="M464.132,152.424h-8.375v-8.374c0-0.547-0.445-0.991-0.992-0.991h-4.287
					c-0.551,0-0.992,0.443-0.992,0.991v8.374h-8.375c-0.549,0-0.992,0.445-0.992,0.992v4.288c0,0.548,0.443,0.993,0.992,0.993h8.375
					v8.375c0,0.547,0.441,0.991,0.992,0.991h4.287c0.547,0,0.992-0.444,0.992-0.991v-8.375h8.375c0.547,0,0.99-0.445,0.99-0.993
					v-4.288C465.122,152.869,464.679,152.424,464.132,152.424z"/>
			</g>
		</g>
	</g>
	<g>
		<g>
			<path style="fill:#FC92A6;" d="M383.628,382.003l21.965-0.365c0,0-7.891,10.214-18.781,5.355L383.628,382.003z"/>
			<g>
				<g>
					<polygon style="fill:#FFFFFF;" points="300.319,332.193 313.306,385.439 333.306,380.765 349.149,422.06 289.378,450.52 
						258.243,450.52 251.23,337.387 					"/>
				</g>
				<g>
					<polygon style="fill:#D8F2FF;" points="300.319,332.193 251.23,337.387 253.5,373.999 304.374,348.812 					"/>
					<path style="fill:#D8F2FF;" d="M313.306,385.439l-6.816-27.951c-5.216,11.158-17.113,35.224-17.113,35.224L313.306,385.439z"/>
				</g>
			</g>
			<path style="fill:#2067D3;" d="M464.587,378.238c0,2.333-1.889,4.224-4.219,4.224H303.815c-2.328,0-4.221-1.891-4.221-4.224l0,0
				c0-2.331,1.893-4.221,4.221-4.221h156.553C462.698,374.018,464.587,375.907,464.587,378.238L464.587,378.238z"/>
			<g>
				<g>
					<path style="fill:#2067D3;" d="M380.077,277.703h-20.709c-3.828,0-3.828-13.866,0-13.866h20.709
						C383.903,263.837,383.903,277.703,380.077,277.703z"/>
					<g>
						<path style="fill:#1D4C9A;" d="M359.194,264.665c-0.311,0-0.561,0.249-0.561,0.559v11.373c0,0.31,0.251,0.56,0.561,0.56
							c0.309,0,0.559-0.25,0.559-0.56v-11.373C359.753,264.914,359.503,264.665,359.194,264.665z"/>
						<path style="fill:#1D4C9A;" d="M361.299,264.665c-0.309,0-0.561,0.249-0.561,0.559v11.373c0,0.31,0.253,0.56,0.561,0.56
							c0.31,0,0.562-0.25,0.562-0.56v-11.373C361.86,264.914,361.608,264.665,361.299,264.665z"/>
						<path style="fill:#1D4C9A;" d="M363.405,264.665c-0.31,0-0.559,0.249-0.559,0.559v11.373c0,0.31,0.249,0.56,0.559,0.56
							c0.311,0,0.562-0.25,0.562-0.56v-11.373C363.967,264.914,363.716,264.665,363.405,264.665z"/>
						<path style="fill:#1D4C9A;" d="M365.51,264.665c-0.308,0-0.56,0.249-0.56,0.559v11.373c0,0.31,0.252,0.56,0.56,0.56
							c0.312,0,0.562-0.25,0.562-0.56v-11.373C366.072,264.914,365.822,264.665,365.51,264.665z"/>
						<path style="fill:#1D4C9A;" d="M367.619,264.665c-0.312,0-0.561,0.249-0.561,0.559v11.373c0,0.31,0.25,0.56,0.561,0.56
							c0.307,0,0.559-0.25,0.559-0.56v-11.373C368.178,264.914,367.926,264.665,367.619,264.665z"/>
						<path style="fill:#1D4C9A;" d="M369.724,264.665c-0.311,0-0.563,0.249-0.563,0.559v11.373c0,0.31,0.252,0.56,0.563,0.56
							c0.31,0,0.558-0.25,0.558-0.56v-11.373C370.282,264.914,370.033,264.665,369.724,264.665z"/>
						<path style="fill:#1D4C9A;" d="M371.83,264.665c-0.31,0-0.561,0.249-0.561,0.559v11.373c0,0.31,0.252,0.56,0.561,0.56
							c0.309,0,0.562-0.25,0.562-0.56v-11.373C372.391,264.914,372.138,264.665,371.83,264.665z"/>
						<path style="fill:#1D4C9A;" d="M373.935,264.665c-0.308,0-0.56,0.249-0.56,0.559v11.373c0,0.31,0.252,0.56,0.56,0.56
							c0.313,0,0.561-0.25,0.561-0.56v-11.373C374.495,264.914,374.248,264.665,373.935,264.665z"/>
						<path style="fill:#1D4C9A;" d="M376.041,264.665c-0.31,0-0.56,0.249-0.56,0.559v11.373c0,0.31,0.25,0.56,0.56,0.56
							c0.31,0,0.561-0.25,0.561-0.56v-11.373C376.603,264.914,376.352,264.665,376.041,264.665z"/>
						<path style="fill:#1D4C9A;" d="M378.146,264.665c-0.309,0-0.559,0.249-0.559,0.559v11.373c0,0.31,0.25,0.56,0.559,0.56
							c0.31,0,0.563-0.25,0.563-0.56v-11.373C378.708,264.914,378.456,264.665,378.146,264.665z"/>
						<path style="fill:#1D4C9A;" d="M380.255,264.665c-0.314,0-0.562,0.249-0.562,0.559v11.373c0,0.31,0.248,0.56,0.562,0.56
							c0.309,0,0.559-0.25,0.559-0.56v-11.373C380.814,264.914,380.564,264.665,380.255,264.665z"/>
					</g>
					<path style="fill:#FFFFFF;" d="M395.759,364.312c0,6.192-5.021,11.214-11.213,11.214h-29.643
						c-6.197,0-11.216-5.021-11.216-11.214v-60.251c0-6.193,5.019-11.216,11.216-11.216h29.643c6.191,0,11.213,5.022,11.213,11.216
						V364.312z"/>
					<path style="fill:#D8F2FF;" d="M354.902,373.282c-4.948,0-8.974-4.022-8.974-8.971v-60.251c0-4.948,4.026-8.972,8.974-8.972
						h29.643c4.947,0,8.971,4.023,8.971,8.972v60.251c0,4.948-4.023,8.971-8.971,8.971H354.902z"/>
					<path style="fill:#FFFFFF;" d="M384.071,292.845c-3.379-3.381-1.914-11.091-1.914-11.091h-24.869c0,0,1.468,7.71-1.915,11.091
						H384.071z"/>
					<path style="fill:#D8F2FF;" d="M359.168,290.603c0.714-2.292,0.76-4.774,0.644-6.605h19.824
						c-0.118,1.831-0.072,4.314,0.643,6.605H359.168z"/>
					<rect x="372.375" y="281.754" style="fill:#D8F2FF;" width="9.72" height="93.771"/>
					<rect x="343.687" y="312.867" style="fill:#FBD103;" width="43.076" height="35.138"/>
					<rect x="343.687" y="319.408" style="fill:#FFFFFF;" width="43.076" height="21.682"/>
					<path style="fill:#1D4C9A;" d="M383.579,282.563h-27.712c-1.978,0-1.978-7.161,0-7.161h27.712
						C385.556,275.401,385.556,282.563,383.579,282.563z"/>
					<path style="fill:#D8F2FF;" d="M395.759,364.312v-32.348h-32.868c-1.184,0-2.146,0.96-2.146,2.148v39.696
						c0,0.705,0.345,1.324,0.869,1.717h22.932C390.737,375.525,395.759,370.504,395.759,364.312z"/>
					<path style="fill:#D8F2FF;" d="M357.357,364.096v-13.183c0-4.577-3.126-8.416-7.356-9.524c-2.084-1.786-2.71-5.902-2.887-8.78
						h2.616c1.697,0,1.697-6.151,0-6.151h-1.382c0.737-3.337,0.498-11.801-0.716-11.801h-3.945v49.655
						c0,4.02,2.123,7.537,5.303,9.517C353.725,373.108,357.357,369.034,357.357,364.096z"/>
				</g>
				<g>
					<path style="fill:#D8F2FF;" d="M464.954,361.377c0,5.395-4.371,9.767-9.766,9.767H401.56c-5.395,0-9.768-4.371-9.768-9.767
						V345.68c0-5.393,4.373-9.764,9.768-9.764h53.629c5.395,0,9.766,4.37,9.766,9.764V361.377z"/>
					<g>
						<path style="fill:#4CB7DB;" d="M460.229,354.017h-63.711c-0.271,0-0.49-0.216-0.49-0.486c0-0.272,0.219-0.488,0.49-0.488
							h63.711c0.27,0,0.488,0.217,0.488,0.488C460.718,353.801,460.499,354.017,460.229,354.017z"/>
					</g>
					<g>
						<g>
							<path style="fill:#FFFFFF;" d="M453.21,344.957c0,2.609-2.115,4.725-4.725,4.725c-2.607,0-4.723-2.115-4.723-4.725
								c0-2.61,2.115-4.724,4.723-4.724C451.095,340.233,453.21,342.347,453.21,344.957z"/>
							<path style="fill:#95D5F9;" d="M448.485,341.223c0,0,0.164,0.468,0.279,1.167c0.125,0.7,0.207,1.636,0.211,2.567
								c-0.002,0.935-0.086,1.87-0.207,2.566c-0.119,0.701-0.283,1.169-0.283,1.169s-0.162-0.468-0.281-1.169
								c-0.123-0.696-0.205-1.632-0.205-2.566c0.002-0.932,0.082-1.867,0.209-2.567C448.323,341.69,448.485,341.223,448.485,341.223
								z"/>
						</g>
						<g>
							<path style="fill:#FFFFFF;" d="M437.823,344.957c0,2.609-2.115,4.725-4.725,4.725s-4.725-2.115-4.725-4.725
								c0-2.61,2.115-4.724,4.725-4.724S437.823,342.347,437.823,344.957z"/>
							<path style="fill:#95D5F9;" d="M433.099,341.223c0,0,0.162,0.468,0.277,1.167c0.125,0.7,0.205,1.636,0.211,2.567
								c-0.006,0.935-0.084,1.87-0.209,2.566c-0.115,0.701-0.279,1.169-0.279,1.169s-0.164-0.468-0.279-1.169
								c-0.127-0.696-0.205-1.632-0.209-2.566c0.004-0.932,0.086-1.867,0.209-2.567C432.935,341.69,433.099,341.223,433.099,341.223
								z"/>
						</g>
						<g>
							<path style="fill:#FFFFFF;" d="M422.437,344.957c0,2.609-2.115,4.725-4.727,4.725c-2.607,0-4.725-2.115-4.725-4.725
								c0-2.61,2.117-4.724,4.725-4.724C420.321,340.233,422.437,342.347,422.437,344.957z"/>
							<path style="fill:#95D5F9;" d="M417.71,341.223c0,0,0.166,0.468,0.281,1.167c0.123,0.7,0.205,1.636,0.205,2.567
								c0,0.935-0.082,1.87-0.205,2.566c-0.115,0.701-0.281,1.169-0.281,1.169s-0.164-0.468-0.279-1.169
								c-0.125-0.696-0.207-1.632-0.207-2.566c0-0.932,0.082-1.867,0.207-2.567C417.548,341.69,417.71,341.223,417.71,341.223z"/>
						</g>
						<g>
							<path style="fill:#FFFFFF;" d="M407.048,344.957c0,2.609-2.117,4.725-4.725,4.725c-2.609,0-4.725-2.115-4.725-4.725
								c0-2.61,2.115-4.724,4.725-4.724C404.931,340.233,407.048,342.347,407.048,344.957z"/>
							<path style="fill:#95D5F9;" d="M402.323,341.223c0,0,0.164,0.468,0.279,1.167c0.123,0.7,0.205,1.636,0.209,2.567
								c-0.004,0.935-0.084,1.87-0.207,2.566c-0.117,0.701-0.281,1.169-0.281,1.169s-0.164-0.468-0.279-1.169
								c-0.125-0.696-0.205-1.632-0.209-2.566c0.004-0.932,0.086-1.867,0.209-2.567C402.161,341.69,402.323,341.223,402.323,341.223
								z"/>
						</g>
						<g>
							<path style="fill:#FFFFFF;" d="M453.21,361.56c0,2.608-2.115,4.727-4.725,4.727c-2.607,0-4.723-2.118-4.723-4.727
								c0-2.609,2.115-4.726,4.723-4.726C451.095,356.834,453.21,358.95,453.21,361.56z"/>
							<path style="fill:#95D5F9;" d="M448.485,357.826c0,0,0.164,0.467,0.279,1.166c0.125,0.7,0.207,1.635,0.211,2.567
								c-0.002,0.935-0.086,1.868-0.207,2.568c-0.119,0.699-0.283,1.167-0.283,1.167s-0.162-0.468-0.281-1.167
								c-0.123-0.7-0.205-1.634-0.205-2.568c0.002-0.933,0.082-1.867,0.209-2.567C448.323,358.293,448.485,357.826,448.485,357.826z
								"/>
						</g>
						<g>
							<path style="fill:#FFFFFF;" d="M437.823,361.56c0,2.608-2.115,4.727-4.725,4.727s-4.725-2.118-4.725-4.727
								c0-2.609,2.115-4.726,4.725-4.726S437.823,358.95,437.823,361.56z"/>
							<path style="fill:#95D5F9;" d="M433.099,357.826c0,0,0.162,0.467,0.277,1.166c0.125,0.7,0.205,1.635,0.211,2.567
								c-0.006,0.935-0.084,1.868-0.209,2.568c-0.115,0.699-0.279,1.167-0.279,1.167s-0.164-0.468-0.279-1.167
								c-0.127-0.7-0.205-1.634-0.209-2.568c0.004-0.933,0.086-1.867,0.209-2.567C432.935,358.293,433.099,357.826,433.099,357.826z
								"/>
						</g>
						<g>
							<path style="fill:#FFFFFF;" d="M422.437,361.56c0,2.608-2.115,4.727-4.727,4.727c-2.607,0-4.725-2.118-4.725-4.727
								c0-2.609,2.117-4.726,4.725-4.726C420.321,356.834,422.437,358.95,422.437,361.56z"/>
							<path style="fill:#95D5F9;" d="M417.71,357.826c0,0,0.166,0.467,0.281,1.166c0.123,0.7,0.205,1.635,0.205,2.567
								c0,0.935-0.082,1.868-0.205,2.568c-0.115,0.699-0.281,1.167-0.281,1.167s-0.164-0.468-0.279-1.167
								c-0.125-0.7-0.207-1.634-0.207-2.568c0-0.933,0.082-1.867,0.207-2.567C417.548,358.293,417.71,357.826,417.71,357.826z"/>
						</g>
						<g>
							<path style="fill:#FFFFFF;" d="M407.048,361.56c0,2.608-2.117,4.727-4.725,4.727c-2.609,0-4.725-2.118-4.725-4.727
								c0-2.609,2.115-4.726,4.725-4.726C404.931,356.834,407.048,358.95,407.048,361.56z"/>
							<path style="fill:#95D5F9;" d="M402.323,357.826c0,0,0.164,0.467,0.279,1.166c0.123,0.7,0.205,1.635,0.209,2.567
								c-0.004,0.935-0.084,1.868-0.207,2.568c-0.117,0.699-0.281,1.167-0.281,1.167s-0.164-0.468-0.279-1.167
								c-0.125-0.7-0.205-1.634-0.209-2.568c0.004-0.933,0.086-1.867,0.209-2.567C402.161,358.293,402.323,357.826,402.323,357.826z
								"/>
						</g>
					</g>
					<path style="fill:#FFFFFF;" d="M429.233,372.025c0,1.079-0.875,1.955-1.953,1.955h-61.361c-1.078,0-1.952-0.876-1.952-1.955
						v-36.131c0-1.082,0.875-1.955,1.952-1.955h61.361c1.078,0,1.953,0.873,1.953,1.955V372.025z"/>
					<rect x="379.43" y="333.94" style="fill:#4CB7DB;" width="27.618" height="35.647"/>
					<rect x="386.429" y="333.94" style="fill:#FBD103;" width="11.17" height="21.648"/>
					<rect x="379.43" y="363.564" style="fill:#2067D3;" width="27.618" height="6.023"/>
					<rect x="419.306" y="333.94" style="fill:#2067D3;" width="3.131" height="40.041"/>
				</g>
				<g>
					<path style="fill:#FFFFFF;" d="M354.445,364.188c0,5.394-4.371,9.765-9.765,9.765h-33.572c-5.395,0-9.767-4.371-9.767-9.765
						v-13.061c0-5.393,4.372-9.767,9.767-9.767h33.572c5.395,0,9.765,4.374,9.765,9.767V364.188z"/>
					<path style="fill:#D8F2FF;" d="M311.108,372c-4.309,0-7.812-3.504-7.812-7.813v-13.061c0-4.308,3.503-7.811,7.812-7.811h33.572
						c4.308,0,7.813,3.504,7.813,7.811v13.061c0,4.309-3.505,7.813-7.813,7.813H311.108z"/>
					<path style="fill:#FFFFFF;" d="M347.158,341.69c-3.338-2.859-2.905-11.748-2.905-11.748h-32.718c0,0,0.432,8.889-2.905,11.748
						H347.158z"/>
					<path style="fill:#D8F2FF;" d="M312.161,339.735c1.026-2.637,1.29-5.794,1.342-7.841h28.784
						c0.051,2.047,0.316,5.204,1.339,7.841H312.161z"/>
					<rect x="326.788" y="329.941" style="fill:#D8F2FF;" width="8.587" height="44.011"/>
					<path style="fill:#1D4C9A;" d="M344.81,328.215h-33.831c-1.5,0-1.5-13.013,0-13.013h33.831
						C346.308,315.202,346.308,328.215,344.81,328.215z"/>
					<g>
						<path style="fill:#2067D3;" d="M313.551,316.571c-0.272,0-0.488,0.218-0.488,0.488v9.835c0,0.271,0.216,0.489,0.488,0.489
							c0.268,0,0.487-0.219,0.487-0.489v-9.835C314.039,316.789,313.819,316.571,313.551,316.571z"/>
						<path style="fill:#2067D3;" d="M316.739,316.571c-0.272,0-0.488,0.218-0.488,0.488v9.835c0,0.271,0.216,0.489,0.488,0.489
							c0.269,0,0.488-0.219,0.488-0.489v-9.835C317.227,316.789,317.008,316.571,316.739,316.571z"/>
						<path style="fill:#2067D3;" d="M319.924,316.571c-0.27,0-0.486,0.218-0.486,0.488v9.835c0,0.271,0.216,0.489,0.486,0.489
							c0.271,0,0.489-0.219,0.489-0.489v-9.835C320.414,316.789,320.195,316.571,319.924,316.571z"/>
						<path style="fill:#2067D3;" d="M323.113,316.571c-0.271,0-0.489,0.218-0.489,0.488v9.835c0,0.271,0.218,0.489,0.489,0.489
							c0.269,0,0.489-0.219,0.489-0.489v-9.835C323.602,316.789,323.382,316.571,323.113,316.571z"/>
						<path style="fill:#2067D3;" d="M326.3,316.571c-0.271,0-0.489,0.218-0.489,0.488v9.835c0,0.271,0.218,0.489,0.489,0.489
							c0.269,0,0.487-0.219,0.487-0.489v-9.835C326.788,316.789,326.569,316.571,326.3,316.571z"/>
						<path style="fill:#2067D3;" d="M329.488,316.571c-0.272,0-0.489,0.218-0.489,0.488v9.835c0,0.271,0.217,0.489,0.489,0.489
							c0.269,0,0.487-0.219,0.487-0.489v-9.835C329.975,316.789,329.757,316.571,329.488,316.571z"/>
						<path style="fill:#2067D3;" d="M332.674,316.571c-0.271,0-0.488,0.218-0.488,0.488v9.835c0,0.271,0.217,0.489,0.488,0.489
							c0.27,0,0.488-0.219,0.488-0.489v-9.835C333.163,316.789,332.944,316.571,332.674,316.571z"/>
						<path style="fill:#2067D3;" d="M335.862,316.571c-0.27,0-0.487,0.218-0.487,0.488v9.835c0,0.271,0.217,0.489,0.487,0.489
							c0.27,0,0.489-0.219,0.489-0.489v-9.835C336.351,316.789,336.132,316.571,335.862,316.571z"/>
						<path style="fill:#2067D3;" d="M339.049,316.571c-0.27,0-0.489,0.218-0.489,0.488v9.835c0,0.271,0.219,0.489,0.489,0.489
							c0.268,0,0.489-0.219,0.489-0.489v-9.835C339.539,316.789,339.317,316.571,339.049,316.571z"/>
						<path style="fill:#2067D3;" d="M342.237,316.571c-0.272,0-0.489,0.218-0.489,0.488v9.835c0,0.271,0.217,0.489,0.489,0.489
							c0.268,0,0.487-0.219,0.487-0.489v-9.835C342.724,316.789,342.505,316.571,342.237,316.571z"/>
					</g>
					<path style="fill:#2067D3;" d="M346.888,332.988h-37.989c-1.682,0-1.682-6.094,0-6.094h37.989
						C348.57,326.895,348.57,332.988,346.888,332.988z"/>
					<rect x="328.999" y="350.3" style="fill:#2067D3;" width="25.446" height="15.534"/>
					<rect x="328.999" y="350.3" style="fill:#FC92A6;" width="7.148" height="15.534"/>
					<rect x="340.906" y="356.074" style="fill:#FFFFFF;" width="13.539" height="5.407"/>
				</g>
			</g>
			<g>
				<path style="fill:#FFCED6;" d="M333.957,382.462h32.079c0,0,7.279-15.992,10.93-17.591c3.652-1.599,5.914,2.676,5.914,2.676
					s2.688-6.033,5.139-6.7c2.447-0.671,4.508,3.764,4.508,3.764s2.543-6.37,4.865-5.886c2.32,0.483,3.955,3.771,3.289,9.728
					c-0.926,8.303-6.535,17.538-10.607,19.637c-3.543,1.821-7.324,1.734-7.324,1.734s-4.47,4.012-10.108,2.153
					c0,0-5.462,6.331-13.682,6.32c-8.218-0.01-16.014-7.071-16.014-7.071l-5.338,0.751L333.957,382.462z"/>
				<g>
					<g>
						<path style="fill:#FC92A6;" d="M372.641,392.635c-0.17,0-0.339-0.065-0.469-0.195c-0.254-0.259-0.252-0.676,0.007-0.932
							c0.087-0.086,8.682-8.729,10.045-24.019c0.033-0.363,0.353-0.632,0.715-0.598c0.361,0.032,0.629,0.353,0.598,0.714
							c-1.41,15.796-10.066,24.479-10.433,24.841C372.974,392.572,372.808,392.635,372.641,392.635z"/>
					</g>
					<g>
						<path style="fill:#FC92A6;" d="M382.749,390.48c-0.178,0-0.355-0.072-0.484-0.213c-0.246-0.267-0.228-0.684,0.039-0.931
							c0.107-0.098,10.748-10.065,9.566-24.673c-0.029-0.362,0.24-0.68,0.604-0.709c0.353-0.015,0.678,0.24,0.709,0.603
							c1.234,15.264-9.877,25.647-9.988,25.75C383.067,390.423,382.909,390.48,382.749,390.48z"/>
					</g>
				</g>
			</g>
			<g>
				<path style="fill:#9CEFD3;" d="M268.074,255.566c9.955,10.455,30.986,44.543,41.961,83.275l-41.961,15.491
					C268.074,354.332,254.519,269.122,268.074,255.566z"/>
				<path style="fill:#52DCB8;" d="M268.074,255.566c-13.556,13.556,0,98.766,0,98.766l21.184-7.821l-21.018-90.764
					C268.187,255.689,268.128,255.623,268.074,255.566z"/>
			</g>
		</g>
		<path style="fill:#FFFFFF;" d="M113.145,450.52h176.233l-21.303-194.953c0,0-16.462-28.404-60.682-28.404
			c-44.22,0-71.655,25.821-71.655,25.821L113.145,450.52z"/>
		<g>
			<path style="fill:#9CEFD3;" d="M268.074,253.501c0,0-9.647-16.775-33.953-24.675l-23.472,50.175l-31.978-50.423
				c-27.051,7.23-42.933,22.313-42.933,22.313L113.145,450.52h176.233L268.074,253.501z"/>
			<path style="fill:#52DCB8;" d="M142.022,248.371c-31.376,8.002-59.554,60.178-66.696,107.741l82.635,3.438
				C157.961,359.55,170.962,275.589,142.022,248.371z"/>
			<g>
				<path style="fill:#52DCB8;" d="M211.811,296.331c-0.286,0-0.556-0.141-0.721-0.378l-39.55-56.998
					c-0.277-0.398-0.177-0.945,0.22-1.222c0.399-0.277,0.945-0.176,1.222,0.22l38.714,55.793l28.415-55.691
					c0.219-0.431,0.746-0.604,1.18-0.382c0.432,0.221,0.604,0.748,0.383,1.181l-29.081,56.997c-0.141,0.274-0.415,0.456-0.723,0.478
					C211.851,296.33,211.831,296.331,211.811,296.331z"/>
			</g>
		</g>
		<g>
			<g>
				<path style="fill:#09105E;" d="M217.473,126.429c-4.856-3.153-10.638-5.005-16.862-5.005c-17.127,0-31.014,13.887-31.014,31.014
					v19.109c0,17.128,13.887,31.015,31.014,31.015c1.385,0,10.37,1.366,13.775,1.366c16.326,0,29.562-13.238,29.562-29.563v-18.538
					C243.949,140.546,232.35,127.974,217.473,126.429z"/>
				<g>
					<path style="fill:#1D4C9A;" d="M218.004,129.394c-0.255-0.076-0.529,0.059-0.615,0.314c-0.081,0.257,0.059,0.531,0.314,0.615
						c0.214,0.066,21.094,7.02,21.638,22.395c-10.34-2.047-15.614-10.904-15.667-10.994c-0.134-0.236-0.435-0.316-0.663-0.177
						c-0.235,0.133-0.313,0.432-0.179,0.664c0.057,0.097,5.601,9.476,16.536,11.524v31.636c0,0.268,0.219,0.487,0.487,0.487
						c0.268,0,0.487-0.219,0.487-0.487v-32.044C240.343,136.813,218.227,129.466,218.004,129.394z"/>
					<path style="fill:#1D4C9A;" d="M219.538,141.26c-0.051,0.055-5.202,5.467-13.205,4.59c-9.055-0.952-11.923-9.076-11.951-9.158
						c-0.086-0.255-0.361-0.396-0.617-0.304c-0.255,0.085-0.392,0.361-0.306,0.616c0.03,0.088,3.083,8.798,12.771,9.816
						c0.633,0.067,1.249,0.097,1.845,0.097c7.419,0,11.97-4.772,12.175-4.992c0.184-0.196,0.173-0.504-0.023-0.689
						C220.033,141.056,219.725,141.062,219.538,141.26z"/>
					<path style="fill:#1D4C9A;" d="M191.298,139.75c-0.255-0.078-0.529,0.072-0.605,0.331c-3.151,10.719-9.561,14.96-13.526,16.611
						c0.042-0.857,0.164-2.406,0.461-4.293c1.081-0.795,6.549-5.085,8.876-12.026c0.086-0.254-0.053-0.531-0.309-0.616
						c-0.255-0.082-0.529,0.055-0.618,0.308c-1.834,5.473-5.826,9.313-7.695,10.882c1.034-5.34,3.513-12.515,9.523-15.663
						c0.239-0.126,0.329-0.421,0.206-0.658c-0.126-0.238-0.419-0.332-0.658-0.206c-9.907,5.189-10.713,20.096-10.78,22.656
						c-1.427,0.499-2.374,0.632-2.405,0.636c-0.269,0.028-0.461,0.27-0.431,0.536c0.026,0.25,0.237,0.435,0.483,0.435
						c0.017,0,0.036,0,0.053-0.004c0.131-0.013,3.273-0.384,7.051-2.837c3.467-2.251,8.139-6.767,10.702-15.485
						C191.704,140.099,191.557,139.826,191.298,139.75z"/>
					<path style="fill:#1D4C9A;" d="M184.376,131.756c17.322-12.137,31.074-1.624,31.212-1.515c0.211,0.165,0.519,0.129,0.683-0.082
						c0.165-0.211,0.129-0.518-0.08-0.683c-0.146-0.116-3.644-2.835-9.409-4.033c-5.306-1.104-13.605-1.041-22.967,5.514
						c-11.325,7.932-11.481,23.955-11.481,24.118c0,0.269,0.217,0.487,0.487,0.487c0.268,0,0.487-0.217,0.487-0.487
						C173.311,154.92,173.47,139.393,184.376,131.756z"/>
					<path style="fill:#1D4C9A;" d="M215.554,136.165c0.095,0.091,0.214,0.135,0.336,0.135c0.128,0,0.256-0.051,0.352-0.15
						c0.187-0.193,0.179-0.504-0.015-0.689c-8.033-7.667-17.269-5.249-19.415-4.537c-0.278-0.714-0.42-1.18-0.426-1.201
						c-0.076-0.259-0.339-0.415-0.603-0.334c-0.259,0.075-0.408,0.345-0.333,0.604c0.126,0.436,3.174,10.67,11.376,12.079
						c0.714,0.124,1.401,0.179,2.062,0.179c6.286,0,9.979-5.064,10.02-5.12c0.156-0.218,0.106-0.523-0.112-0.679
						c-0.218-0.157-0.523-0.109-0.68,0.112c-0.041,0.057-4.198,5.738-11.125,4.548c-5.416-0.931-8.477-6.263-9.803-9.288
						C199.281,131.143,207.981,128.938,215.554,136.165z"/>
				</g>
			</g>
			<g>
				<path style="fill:#FFCED6;" d="M189.491,192.858l-3.736,39.781c0,0,6.489,14.364,22.567,13.727
					c17.925-0.708,19.689-14.658,19.689-14.658l-7.359-40.945L189.491,192.858z"/>
				<path style="fill:#FC92A6;" d="M189.491,192.858l-1.986,21.148c5.07,3.661,11.291,5.825,18.023,5.825
					c7.238,0,13.887-2.501,19.147-6.678l-4.024-22.388L189.491,192.858z"/>
			</g>
			<g>
				<path style="fill:#FFCED6;" d="M219.857,145.523c-3.435,3.256-7.861,5.223-12.699,5.223c-5.431,0-10.347-2.476-13.922-6.478
					c-2.836,9.007-9.899,15.785-18.535,17.317v21.225c0,17.023,13.801,30.824,30.826,30.824c17.023,0,30.824-13.802,30.824-30.824
					v-24.893c0-0.043-0.005-0.086-0.005-0.127C229.525,156.14,223.668,151.664,219.857,145.523z"/>
			</g>
			<g>
				<path style="fill:#FFCED6;" d="M250.022,186.532c0,4.992-4.048,9.04-9.04,9.04c-4.993,0-9.04-4.048-9.04-9.04
					c0-4.991,4.047-9.04,9.04-9.04C245.974,177.492,250.022,181.541,250.022,186.532z"/>
				<path style="fill:#FC92A6;" d="M245.346,186.532c0,2.41-1.954,4.363-4.363,4.363c-2.41,0-4.364-1.954-4.364-4.363
					c0-2.409,1.955-4.364,4.364-4.364C243.392,182.168,245.346,184.123,245.346,186.532z"/>
			</g>
			<g>
				
					<ellipse transform="matrix(0.3655 -0.9308 0.9308 0.3655 -65.7122 276.6664)" style="fill:#FFCED6;" cx="170.073" cy="186.532" rx="9.04" ry="9.04"/>
				<path style="fill:#FC92A6;" d="M165.709,186.532c0,2.41,1.956,4.363,4.364,4.363c2.41,0,4.364-1.954,4.364-4.363
					c0-2.409-1.954-4.364-4.364-4.364C167.665,182.168,165.709,184.123,165.709,186.532z"/>
			</g>
			<g>
				<g>
					<path style="fill:#FC92A6;" d="M206.537,187.11c-0.777,0.002-1.57-0.168-2.351-0.51c-1.333-0.584-2.718-1.775-2.612-3.008
						c0.105-1.241,1.4-13.72,1.455-14.251c0.055-0.535,0.544-0.925,1.069-0.868c0.535,0.055,0.923,0.535,0.869,1.069
						c-0.014,0.129-1.35,12.988-1.452,14.212c0.081,0.187,0.939,1.021,2.204,1.31c0.925,0.211,2.302,0.175,3.587-1.22
						c0.365-0.392,0.982-0.419,1.378-0.058c0.396,0.366,0.42,0.983,0.057,1.379C209.562,186.446,208.082,187.11,206.537,187.11z"/>
				</g>
				<path style="fill:#FC92A6;" d="M231.322,179.831c0,2.409-1.954,4.364-4.364,4.364c-2.409,0-4.364-1.955-4.364-4.364
					s1.955-4.364,4.364-4.364C229.368,175.467,231.322,177.422,231.322,179.831z"/>
				<path style="fill:#001526;" d="M225.296,175.467c0,1.948-1.209,3.53-2.701,3.53c-1.492,0-2.701-1.582-2.701-3.53
					c0-1.949,1.208-3.53,2.701-3.53C224.087,171.937,225.296,173.519,225.296,175.467z"/>
				<path style="fill:#FC92A6;" d="M179.734,179.831c0,2.409,1.954,4.364,4.363,4.364c2.41,0,4.364-1.955,4.364-4.364
					s-1.955-4.364-4.364-4.364C181.688,175.467,179.734,177.422,179.734,179.831z"/>
				<ellipse style="fill:#001526;" cx="188.461" cy="175.467" rx="2.7" ry="3.53"/>
				<g>
					<path style="fill:#FC92A6;" d="M206.231,200.047c-6.408,0-11.622-5.085-11.622-11.337c0-0.538,0.436-0.974,0.975-0.974
						c0.539,0,0.974,0.436,0.974,0.974c0,5.177,4.339,9.389,9.673,9.389c5.335,0,9.673-4.212,9.673-9.389
						c0-0.538,0.436-0.974,0.975-0.974c0.539,0,0.974,0.436,0.974,0.974C217.854,194.962,212.64,200.047,206.231,200.047z"/>
				</g>
				<g>
					<path style="fill:#001526;" d="M183.341,171.271c-0.268,0-0.486-0.219-0.486-0.487c0-3.416,2.641-6.194,5.888-6.194
						c0.268,0,0.487,0.219,0.487,0.487c0,0.269-0.219,0.488-0.487,0.488c-2.71,0-4.913,2.343-4.913,5.22
						C183.829,171.052,183.609,171.271,183.341,171.271z"/>
				</g>
				<g>
					<path style="fill:#001526;" d="M227.714,171.271c-0.268,0-0.487-0.219-0.487-0.487c0-2.877-2.204-5.22-4.913-5.22
						c-0.268,0-0.488-0.219-0.488-0.488c0-0.268,0.219-0.487,0.488-0.487c3.246,0,5.887,2.778,5.887,6.194
						C228.201,171.052,227.982,171.271,227.714,171.271z"/>
				</g>
			</g>
		</g>
		<g>
			<path style="fill:#9CEFD3;" d="M142.022,248.371c-32.265,2.737-68.633,49.572-83.496,95.316l80.947,16.971
				C139.473,360.657,166.096,279.974,142.022,248.371z"/>
			<g>
				<path style="fill:#FFFFFF;" d="M62.762,344.576c0,0-23.195,22.408-21.979,67.741c1.144,42.583,74.5,39.584,111.315-2.448
					l-16.361-49.997l-10.892,0.785l1.026-2.852L62.762,344.576z"/>
				<polygon style="fill:#D8F2FF;" points="124.846,360.657 125.873,357.806 91.33,350.564 70.546,366.045 				"/>
			</g>
		</g>
		<g>
			<path style="fill:#2067D3;" d="M99.283,433.214c-1.517,0-3.005-0.478-4.245-1.382c-1.552-1.135-2.585-2.84-2.874-4.741
				L72.412,296.228c-0.59-3.903,2.075-7.555,5.973-8.182l77.604-12.505c1.901-0.303,3.839,0.159,5.391,1.293
				c1.553,1.134,2.586,2.839,2.875,4.739l19.754,130.864c0.587,3.905-2.077,7.554-5.975,8.181l-77.604,12.507
				C100.047,433.186,99.665,433.214,99.283,433.214z"/>
			<path style="fill:#FFFFFF;" d="M136.889,317.787c1.216,8.315-4.537,16.038-12.852,17.256c-8.312,1.216-16.04-4.536-17.256-12.852
				c-1.217-8.315,4.538-16.043,12.853-17.256C127.948,303.719,135.672,309.472,136.889,317.787z"/>
			<path style="fill:#2067D3;" d="M131.727,315.674l-7.498,1.098l-1.096-7.495c-0.072-0.49-0.527-0.83-1.017-0.758l-3.836,0.563
				c-0.491,0.071-0.831,0.526-0.757,1.017l1.095,7.493l-7.496,1.098c-0.491,0.071-0.828,0.526-0.756,1.016l0.561,3.839
				c0.073,0.489,0.529,0.831,1.019,0.758l7.493-1.096l1.098,7.496c0.074,0.491,0.526,0.828,1.018,0.758l3.836-0.563
				c0.492-0.071,0.831-0.526,0.758-1.017l-1.094-7.495l7.493-1.096c0.49-0.072,0.831-0.529,0.758-1.02l-0.563-3.837
				C132.672,315.943,132.216,315.602,131.727,315.674z"/>
			<path style="fill:#1D4C9A;" d="M184.008,412.438l-19.754-130.864c-0.289-1.9-1.321-3.605-2.875-4.739
				c-1.552-1.134-3.489-1.596-5.391-1.293l-77.604,12.505c-1.754,0.281-3.255,1.18-4.325,2.435c0.679-0.359,1.424-0.622,2.223-0.752
				l77.605-12.503c1.901-0.304,3.839,0.16,5.39,1.292c1.554,1.134,2.586,2.838,2.874,4.74l19.755,130.864
				c0.323,2.147-0.341,4.213-1.649,5.746C182.884,418.476,184.475,415.54,184.008,412.438z"/>
		</g>
		<g>
			<g>
				<g>
					<path style="fill:#FFCED6;" d="M188.358,369.647c0,0,4.381-6.102-1.409-9.702c0,0,2.037-7.494-3.911-9.381
						c0,0,0.938-6.576-2.034-8.768c-2.974-2.191-7.51-1.406-7.51-1.406s-0.468,7.979-4.224,9.386
						c-3.757,1.41-7.978,0.789-7.978,0.789l12.202-10.175c0,0,4.067-5.634-1.409-9.076c-5.475-3.44-26.014,12.54-28.573,15.265
						c-2.561,2.729-4.039,14.08-4.039,14.08l-3.077,1.221l13.126,40.114c0,0,22.72-4.856,29.291-8.275
						c6.572-3.42,11.889-11.241,12.985-14.686C192.895,375.592,191.957,370.27,188.358,369.647z"/>
				</g>
				<g>
					<g>
						<path style="fill:#FC92A6;" d="M161.421,351.668c-3.439,0-6.418-0.421-6.64-0.453c-0.36-0.052-0.609-0.386-0.557-0.746
							c0.052-0.359,0.395-0.605,0.746-0.557c0.095,0.014,9.56,1.348,14.022-0.734c0.328-0.154,0.721-0.012,0.874,0.318
							c0.154,0.33,0.011,0.721-0.317,0.875C167.377,351.384,164.244,351.668,161.421,351.668z"/>
					</g>
					<g>
						<path style="fill:#FC92A6;" d="M173.651,362.011c-0.185,0-0.369-0.077-0.499-0.229c-0.237-0.275-0.206-0.69,0.069-0.928
							c0.079-0.068,7.864-6.8,9.198-10.513c0.123-0.343,0.498-0.522,0.842-0.398c0.342,0.125,0.52,0.501,0.397,0.843
							c-1.451,4.038-9.247,10.78-9.579,11.065C173.956,361.959,173.803,362.011,173.651,362.011z"/>
					</g>
					<g>
						<path style="fill:#FC92A6;" d="M177.25,372.493c-0.173,0-0.347-0.068-0.477-0.204c-0.251-0.264-0.241-0.679,0.022-0.931
							c0.068-0.063,6.84-6.559,9.572-11.721c0.17-0.322,0.57-0.443,0.89-0.275c0.321,0.17,0.444,0.568,0.274,0.89
							c-2.833,5.354-9.542,11.788-9.827,12.06C177.577,372.434,177.414,372.493,177.25,372.493z"/>
					</g>
					<g>
						<path style="fill:#FC92A6;" d="M181.161,379.534c-0.161,0-0.322-0.059-0.45-0.178c-0.264-0.248-0.279-0.665-0.03-0.931
							c0.045-0.048,4.522-4.852,7.116-9.122c0.188-0.311,0.592-0.41,0.904-0.221c0.31,0.189,0.41,0.594,0.22,0.905
							c-2.665,4.388-7.091,9.137-7.278,9.338C181.512,379.464,181.337,379.534,181.161,379.534z"/>
					</g>
				</g>
			</g>
			<path style="fill:#FFFFFF;" d="M40.784,412.317c1.144,42.583,74.5,39.584,111.315-2.448l-16.361-49.997l-10.892,0.785
				l-63.439,6.533L40.784,412.317z"/>
		</g>
	</g>
	<path style="fill:#2067D3;" d="M725.249,455.157c0,4.639-3.76,8.398-8.398,8.398H33.148c-4.638,0-8.398-3.76-8.398-8.398l0,0
		c0-4.639,3.76-8.398,8.398-8.398h683.702C721.489,446.759,725.249,450.519,725.249,455.157L725.249,455.157z"/>
</g>
</svg>
