<?xml version="1.0" encoding="UTF-8"?>
<svg version="1.1" xmlns="http://www.w3.org/2000/svg" width="500" height="500">
<path d="M0 0 C165 0 330 0 500 0 C500 165 500 330 500 500 C335 500 170 500 0 500 C0 335 0 170 0 0 Z " fill="#FEFEFE" transform="translate(0,0)"/>
<path d="M0 0 C52.95308814 -4.04089148 52.95308814 -4.04089148 65.21414185 5.40667725 C72.28234577 11.65603231 76.92281122 18.98479513 78.24609375 28.359375 C78.5603197 33.69652624 78.09239181 38.77332533 77 44 C72.62048739 40.50354988 68.9101572 36.84415648 65.2421875 32.6015625 C63.90547411 31.11523171 62.56866102 29.62897676 61.22607422 28.14794922 C60.33089943 27.13889603 59.45468438 26.11267498 58.59912109 25.06982422 C54.85160655 20.53577655 51.34516151 16.58790101 45.42102051 15.54675293 C39.2583119 15.09657094 33.14313555 15.40447381 27 16 C33.11725233 22.1405293 39.23728136 28.27827417 45.36077118 34.41258335 C48.2047489 37.26175653 51.04779857 40.1118425 53.88867188 42.96411133 C56.63562934 45.72201719 59.3850967 48.47739861 62.13624573 51.23112297 C63.17997576 52.27668588 64.22283257 53.32312132 65.26475525 54.37048531 C70.44388418 59.57555749 75.64776502 64.69911932 81.22668457 69.47926331 C85.72864275 73.33999382 90.01627622 77.43475843 94.28466797 81.55004883 C95.43130666 82.64462692 96.58936813 83.72735859 97.75830078 84.7980957 C99.47293341 86.37196059 101.14424727 87.98268732 102.8125 89.60546875 C103.33424805 90.06841843 103.85599609 90.5313681 104.39355469 91.00834656 C107.96356693 94.59581653 108.31458827 97.35018315 108.32421875 102.3996582 C108.24141699 104.26773032 108.14167212 106.13546827 108 108 C55.04691186 112.04089148 55.04691186 112.04089148 42.78585815 102.59332275 C35.71765423 96.34396769 31.07718878 89.01520487 29.75390625 79.640625 C29.4396803 74.30347376 29.90760819 69.22667467 31 64 C35.29600781 67.43912216 38.95217963 71.00075107 42.5390625 75.1796875 C43.36921875 76.1078125 44.199375 77.0359375 45.0546875 77.9921875 C46.75606545 79.90041991 48.4163354 81.84618436 50.03125 83.828125 C54.63755415 88.82645503 57.61709145 91.15649583 64.39355469 91.62988281 C69.61586983 91.73471543 74.80023237 91.47817191 80 91 C75.45039225 86.42485803 70.89672678 81.85378313 66.34033203 77.28540039 C64.79351499 75.73358112 63.24759993 74.18086219 61.70263672 72.62719727 C59.47084213 70.3831559 57.23573155 68.14246196 55 65.90234375 C54.31945557 65.21663803 53.63891113 64.53093231 52.93774414 63.82444763 C49.10861503 59.99488036 45.17492339 56.36281871 41.07666016 52.82408142 C34.39973927 46.95925693 28.08709796 40.67865782 21.73388672 34.46850586 C19.90836334 32.69498658 18.07133637 30.93323337 16.22314453 29.18334961 C13.53615123 26.63635854 10.89055687 24.05203041 8.25 21.45703125 C7.42201904 20.68784866 6.59403809 19.91866608 5.7409668 19.12617493 C1.27649211 14.64797357 -0.49674171 11.85114772 -0.515625 5.40893555 C-0.38486417 3.60250975 -0.22732594 1.79682928 0 0 Z " fill="#132B6A" transform="translate(61,200)"/>
<path d="M0 0 C-0.45822468 3.46941546 -0.89131683 6.67395049 -2 10 C-2.68964844 9.7834375 -3.37929687 9.566875 -4.08984375 9.34375 C-10.00743425 7.59038985 -15.79823213 6.00513307 -22 7 C-22.99 7.66 -23.98 8.32 -25 9 C-25.25030977 11.58380177 -25.25030977 11.58380177 -25 14 C-19.76556002 16.83429771 -14.54988379 18.42243083 -8.83398438 19.9296875 C-4.0281785 21.31711864 -1.30407521 23.06509002 2 27 C3.78304594 30.56609187 3.74062693 34.1240524 3 38 C0.1469638 43.04500304 -3.97237817 46.93548713 -9.578125 48.59765625 C-19.02682405 50.16735948 -28.48863124 49.7127764 -37 45 C-37.66 44.01 -38.32 43.02 -39 42 C-37.625 38.3125 -37.625 38.3125 -36 35 C-33.285985 35.47894382 -30.83078243 36.06303714 -28.2421875 37.02734375 C-24.74263274 38.07721018 -21.89389331 38.23367837 -18.25 38.1875 C-17.12078125 38.18105469 -15.9915625 38.17460937 -14.828125 38.16796875 C-12.05031247 38.18907219 -12.05031247 38.18907219 -10 37 C-10 35.35 -10 33.7 -10 32 C-14.43705523 29.93625338 -18.777543 28.48930764 -23.5 27.1875 C-29.02578721 25.53231028 -33.34221985 23.57222519 -37 19 C-38.24350856 15.26947433 -38.52198871 11.87447957 -38 8 C-30.95370081 -6.09259838 -12.70721457 -5.4459491 0 0 Z " fill="#162D6B" transform="translate(225,211)"/>
<path d="M0 0 C3.63 0 7.26 0 11 0 C11 6.27 11 12.54 11 19 C12.98 17.68 14.96 16.36 17 15 C22.25418279 14.13114425 27.3364378 14.51605463 32.4375 16 C36.09188317 18.8522015 38.27370804 21.67076139 40 26 C40.5960485 30.85224684 40.47365216 35.62080846 40.3125 40.5 C40.28994141 41.799375 40.26738281 43.09875 40.24414062 44.4375 C40.18552472 47.62620497 40.10351129 50.81248932 40 54 C36.37 54 32.74 54 29 54 C28.96261719 52.31390625 28.92523438 50.6278125 28.88671875 48.890625 C28.82106219 46.67706097 28.75461475 44.4635203 28.6875 42.25 C28.66494141 41.13882813 28.64238281 40.02765625 28.61914062 38.8828125 C28.5659668 37.27792969 28.5659668 37.27792969 28.51171875 35.640625 C28.48553467 34.65610352 28.45935059 33.67158203 28.43237305 32.65722656 C27.9385634 29.62243032 27.1042974 28.21246522 25 26 C22.87181011 25.33337309 22.87181011 25.33337309 20.5625 25.4375 C19.41974609 25.40462891 19.41974609 25.40462891 18.25390625 25.37109375 C15.8433416 25.88442314 15.8433416 25.88442314 13.76171875 27.796875 C11.0913895 32.65201909 11.32334768 37.35476551 11.25 42.8125 C11.22035156 43.88693359 11.19070312 44.96136719 11.16015625 46.06835938 C11.08966347 48.71183877 11.04254347 51.35592311 11 54 C7.37 54 3.74 54 0 54 C0 36.18 0 18.36 0 0 Z " fill="#152C6B" transform="translate(235,205)"/>
<path d="M0 0 C5.16601284 3.03946285 9.02403247 7.50085123 10.5625 13.375 C10.5625 16.015 10.5625 18.655 10.5625 21.375 C0.9925 21.375 -8.5775 21.375 -18.4375 21.375 C-16.66898964 24.55574165 -16.66898964 24.55574165 -14.4375 27.375 C-12.52397154 27.50119896 -10.60514977 27.55080701 -8.6875 27.5625 C-7.64078125 27.57667969 -6.5940625 27.59085938 -5.515625 27.60546875 C-2.41669323 27.37344213 -0.23473986 26.68555867 2.5625 25.375 C5.0375 28.84 5.0375 28.84 7.5625 32.375 C-0.20363736 37.72500574 -6.128302 37.95353773 -15.4375 37.375 C-21.57570612 36.05148187 -25.51546469 32.10020465 -29.0546875 27.08203125 C-31.87319919 21.56443633 -31.19029672 14.86863912 -29.4375 9.0625 C-22.24294252 -0.60518661 -11.70668665 -5.38418222 0 0 Z " fill="#162E6B" transform="translate(407.4375,221.625)"/>
<path d="M0 0 C0.45383057 0.39795776 0.90766113 0.79591553 1.37524414 1.20593262 C5.25707948 4.58459485 5.25707948 4.58459485 9.43359375 7.58007812 C12.12024245 9.52567265 13.4416511 11.03834202 15 14 C15.96236901 20.086984 15.38499625 26.37085807 15.11697388 32.50009155 C13.93841522 49.24671524 13.93841522 49.24671524 19.59765625 64.41796875 C22.84608905 67.89655957 26.42982684 70.72832696 30.54711914 73.1159668 C31.02656982 73.40769775 31.50602051 73.69942871 32 74 C32 74.33 32 74.66 32 75 C28.54352232 75.29476653 25.09030647 75.46930587 21.625 75.625 C20.65949219 75.70878906 19.69398437 75.79257812 18.69921875 75.87890625 C12.6615036 76.08151414 9.1982959 75.00513393 4.69921875 70.88867188 C-0.43806404 65.46113558 -1.13721969 61.28290407 -1.13296509 53.95675659 C-1.08192458 52.5726928 -1.02976504 51.18866987 -0.9765625 49.8046875 C-0.95787024 48.36171411 -0.943655 46.91867648 -0.9336853 45.47561646 C-0.89581727 41.70918101 -0.79789333 37.94671066 -0.68664551 34.18182373 C-0.58364573 30.32749059 -0.53852925 26.47250529 -0.48828125 22.6171875 C-0.38159357 15.07633288 -0.21133926 7.53872554 0 0 Z " fill="#24A9A0" transform="translate(61,233)"/>
<path d="M0 0 C3.41711941 3.09443743 5.44466442 6.21951872 6.06738281 10.80419922 C6.04643555 11.98771973 6.02548828 13.17124023 6.00390625 14.390625 C5.99101562 15.6796875 5.978125 16.96875 5.96484375 18.296875 C5.93143031 19.64324018 5.89757062 20.98959435 5.86328125 22.3359375 C5.84319481 23.70570319 5.8249478 25.07549716 5.80859375 26.4453125 C5.76156185 29.78457736 5.69583989 33.12239312 5.61328125 36.4609375 C2.31328125 36.4609375 -0.98671875 36.4609375 -4.38671875 36.4609375 C-4.71671875 35.4709375 -5.04671875 34.4809375 -5.38671875 33.4609375 C-6.423125 34.19183594 -6.423125 34.19183594 -7.48046875 34.9375 C-10.87869924 36.7188305 -13.07142425 36.86268022 -16.88671875 36.8359375 C-17.99015625 36.84367187 -19.09359375 36.85140625 -20.23046875 36.859375 C-23.72855302 36.41778515 -25.58217766 35.56434332 -28.38671875 33.4609375 C-31.211656 29.22353163 -31.16560595 25.43627817 -30.38671875 20.4609375 C-27.57236859 16.60125728 -24.88327072 14.8723552 -20.38671875 13.4609375 C-17.74064666 13.32383532 -15.21202862 13.27030778 -12.57421875 13.3359375 C-11.53491211 13.34947266 -11.53491211 13.34947266 -10.47460938 13.36328125 C-8.7784948 13.38667593 -7.08256004 13.42254109 -5.38671875 13.4609375 C-6.50526461 9.73479597 -6.50526461 9.73479597 -9.38671875 7.4609375 C-15.35204824 7.04180487 -20.81828414 7.05296578 -26.38671875 9.4609375 C-27.94921875 6.6484375 -27.94921875 6.6484375 -29.38671875 3.4609375 C-28.38671875 0.4609375 -28.38671875 0.4609375 -25.76171875 -1.2265625 C-17.89803792 -4.28737408 -7.44049252 -4.00247184 0 0 Z " fill="#142C6A" transform="translate(313.38671875,222.5390625)"/>
<path d="M0 0 C3.49884604 -0.23470071 6.9956499 -0.3751631 10.5 -0.5 C11.97339844 -0.60054687 11.97339844 -0.60054687 13.4765625 -0.703125 C18.70571074 -0.84256895 22.30345044 -0.45590024 26.30078125 3.09765625 C31.74963083 8.93688466 31.00583125 15.74326634 30.78125 23.21875 C30.76630564 24.68702088 30.75492898 26.15533199 30.74694824 27.62365723 C30.71658379 31.46505312 30.63816797 35.30398044 30.54931641 39.14440918 C30.46707839 43.07249563 30.43085667 47.00098602 30.390625 50.9296875 C30.30514843 58.62091008 30.16884454 66.31010755 30 74 C29.31911819 73.40238358 29.31911819 73.40238358 28.6244812 72.79269409 C24.75054776 69.41750013 24.75054776 69.41750013 20.57080078 66.44189453 C17.85595385 64.49571307 16.56035347 62.98911087 15 60 C13.68359803 51.80694057 14.58452678 43.08840666 15.04394531 34.84277344 C16.01292581 21.88073247 16.01292581 21.88073247 10.82519531 10.48535156 C7.49161949 6.95838483 3.82671465 3.97373139 0 1 C0 0.67 0 0.34 0 0 Z " fill="#22A89F" transform="translate(138,200)"/>
<path d="M0 0 C3.63 0 7.26 0 11 0 C11 1.32 11 2.64 11 4 C11.928125 3.34 12.85625 2.68 13.8125 2 C18.69714412 -0.7898069 23.52312086 -0.67840497 29 0 C34.37842846 1.85800256 37.46081756 4.92163513 40 10 C40.08559118 12.17824961 40.10713412 14.35915255 40.09765625 16.5390625 C40.09443359 17.84101563 40.09121094 19.14296875 40.08789062 20.484375 C40.07953466 21.86458399 40.07106971 23.24479232 40.0625 24.625 C40.05748501 26.01301926 40.0529221 27.40104022 40.04882812 28.7890625 C40.03700976 32.19275132 40.02053434 35.59635439 40 39 C36.37 39 32.74 39 29 39 C28.93941406 37.23011719 28.87882812 35.46023437 28.81640625 33.63671875 C28.73200248 31.32030405 28.64735439 29.00389824 28.5625 26.6875 C28.52318359 25.52025391 28.48386719 24.35300781 28.44335938 23.15039062 C28.40146484 22.03212891 28.35957031 20.91386719 28.31640625 19.76171875 C28.27974854 18.73006592 28.24309082 17.69841309 28.20532227 16.63549805 C28.09838758 13.89251742 28.09838758 13.89251742 27 11 C25.23050905 10.89184775 23.45912513 10.81433917 21.6875 10.75 C20.20830078 10.68039063 20.20830078 10.68039063 18.69921875 10.609375 C15.93206331 10.73103317 15.93206331 10.73103317 14.36328125 12.671875 C12.70547977 15.50296291 12.57519249 17.37276221 12.48828125 20.640625 C12.45283203 21.71054688 12.41738281 22.78046875 12.38085938 23.8828125 C12.34702148 25.54957031 12.34702148 25.54957031 12.3125 27.25 C12.27833984 28.37664062 12.24417969 29.50328125 12.20898438 30.6640625 C12.12657726 33.44235954 12.06161028 36.22116399 12 39 C8.04 39 4.08 39 0 39 C0 26.13 0 13.26 0 0 Z " fill="#172E6C" transform="translate(329,220)"/>
<path d="M0 0 C4.021875 -0.0928125 4.021875 -0.0928125 8.125 -0.1875 C8.95789551 -0.21481201 9.79079102 -0.24212402 10.64892578 -0.27026367 C17.07615236 -0.34157506 21.04856799 1.21825773 25.875 5.625 C28.58985654 9.93683097 28.97050654 13.03171881 28 18 C25.34641502 23.11762818 22.46882174 26.17705942 17 28 C15.66474283 28.07973476 14.32587917 28.10771338 12.98828125 28.09765625 C11.96408081 28.09390991 11.96408081 28.09390991 10.91918945 28.09008789 C10.05898193 28.08098389 9.19877441 28.07187988 8.3125 28.0625 C4.1978125 28.0315625 4.1978125 28.0315625 0 28 C0 18.76 0 9.52 0 0 Z " fill="#25A9A0" transform="translate(187,270)"/>
<path d="M0 0 C0.99 0.66 1.98 1.32 3 2 C3.33 1.34 3.66 0.68 4 0 C5.98 0 7.96 0 10 0 C10.08741124 3.56234428 10.14052896 7.12441108 10.1875 10.6875 C10.21263672 11.69490234 10.23777344 12.70230469 10.26367188 13.74023438 C10.35708722 23.17518378 10.35708722 23.17518378 7 27 C4.72289401 29.21438909 3.50622892 29.93076575 0.34375 30.36328125 C-0.5946875 30.34652344 -1.533125 30.32976562 -2.5 30.3125 C-3.4384375 30.30863281 -4.376875 30.30476563 -5.34375 30.30078125 C-8.02087334 29.9976364 -9.69965635 29.36176004 -12 28 C-11.67 26.35 -11.34 24.7 -11 23 C-10.484375 23.165 -9.96875 23.33 -9.4375 23.5 C-6.19157262 24.16583126 -3.30456168 24.24033176 0 24 C2.10358381 22.45737187 2.84054159 21.31891683 4 19 C3.484375 19.33 2.96875 19.66 2.4375 20 C-0.97498318 21.3999931 -3.33572491 21.4422401 -7 21 C-9.97239241 19.21523759 -12.42604027 17.14791945 -14 14 C-14.67660495 8.13609041 -14.67660495 8.13609041 -12.953125 5.2421875 C-8.80890642 0.19599193 -6.41899534 -0.33784186 0 0 Z " fill="#2AABA3" transform="translate(244,276)"/>
<path d="M0 0 C2.80824066 1.78706224 4.26736906 2.78473811 5.75 5.75 C6.29500097 10.74584223 5.84938694 13.76507393 2.75 17.75 C-1.05712013 21.16071716 -3.88177519 21.25881108 -8.83984375 21.10546875 C-12.27979826 20.59811728 -13.96319039 19.32266081 -16.25 16.75 C-18.53582634 13.48453379 -18.65058025 10.67568648 -18.25 6.75 C-14.70364421 -1.27596309 -7.97185512 -3.06609812 0 0 Z " fill="#1A316E" transform="translate(309.25,277.25)"/>
<path d="M0 0 C5.07 3.8025 5.07 3.8025 5.71875 6.9921875 C5.80363049 13.97360805 5.80363049 13.97360805 2.875 17.75 C-1.67620483 21.10922262 -5.20031804 21.22518545 -10.75 20.6875 C-13.64728868 19.4546112 -15.14683427 18.4629988 -17.0625 16 C-18.09362581 12.53166773 -18.32917512 9.24024495 -17.75 5.6875 C-13.64585949 -1.05501654 -7.4626795 -3.5617334 0 0 Z " fill="#172E6C" transform="translate(404.75,277.3125)"/>
<path d="M0 0 C2.75329021 1.79562405 4.52627461 3.05254922 6 6 C6.07181821 8.71760108 6.09299506 11.40859388 6.0625 14.125 C6.05798828 14.87910156 6.05347656 15.63320313 6.04882812 16.41015625 C6.03703499 18.27347127 6.01909942 20.13674555 6 22 C3.69 22 1.38 22 -1 22 C-1.33 17.05 -1.66 12.1 -2 7 C-3.98 7 -5.96 7 -8 7 C-9.94090826 8.94090826 -9.39919435 12.47293902 -9.5625 15.0625 C-9.64628906 16.35285156 -9.73007812 17.64320313 -9.81640625 18.97265625 C-9.87699219 19.97167969 -9.93757813 20.97070312 -10 22 C-11.98 22 -13.96 22 -16 22 C-16 15.07 -16 8.14 -16 1 C-14.35 1 -12.7 1 -11 1 C-11 1.66 -11 2.32 -11 3 C-10.34 3 -9.68 3 -9 3 C-9 2.34 -9 1.68 -9 1 C-5.89951072 -0.55024464 -3.42105782 -0.28992015 0 0 Z " fill="#1D336F" transform="translate(431,276)"/>
<path d="M0 0 C2.31 0 4.62 0 7 0 C7.33 4.95 7.66 9.9 8 15 C9.65 15.33 11.3 15.66 13 16 C15.77042109 13.22957891 15.39796106 11.23466195 15.625 7.375 C15.69976562 6.18648438 15.77453125 4.99796875 15.8515625 3.7734375 C15.90054687 2.85820312 15.94953125 1.94296875 16 1 C17.98 1 19.96 1 22 1 C22 7.93 22 14.86 22 22 C19 22 16 22 13 22 C11.0509375 22.12375 11.0509375 22.12375 9.0625 22.25 C5.90489006 22.25580443 5.20887825 22.15531972 2.5625 20.1875 C-0.3777958 16.07108589 -0.12134226 12.16019702 -0.0625 7.3125 C-0.05798828 6.61060547 -0.05347656 5.90871094 -0.04882812 5.18554688 C-0.03706927 3.45699462 -0.01913454 1.72848635 0 0 Z " fill="#1C326F" transform="translate(331,276)"/>
<path d="M0 0 C0.99 0.66 1.98 1.32 3 2 C2.67 3.32 2.34 4.64 2 6 C-1.3 6 -4.6 6 -8 6 C-8 6.66 -8 7.32 -8 8 C-7.07767578 8.16435547 -7.07767578 8.16435547 -6.13671875 8.33203125 C-5.32847656 8.49058594 -4.52023437 8.64914062 -3.6875 8.8125 C-2.88699219 8.96332031 -2.08648437 9.11414063 -1.26171875 9.26953125 C1.27489196 10.08878203 2.36883016 10.91458033 4 13 C4.56114721 16.1263916 4.25613705 17.54871092 2.6875 20.3125 C-1.56386464 22.98196152 -6.10844043 22.61863842 -11 22 C-13.34375 20.9765625 -13.34375 20.9765625 -15 20 C-14.67 18.68 -14.34 17.36 -14 16 C-10.04 16.33 -6.08 16.66 -2 17 C-2.33 16.34 -2.66 15.68 -3 15 C-4.8871875 14.566875 -4.8871875 14.566875 -6.8125 14.125 C-10.57733991 13.24473168 -12.83310953 12.39165464 -15 9 C-15.0625 5.9375 -15.0625 5.9375 -14 3 C-10.06687435 -0.6873053 -5.1309058 -0.73984971 0 0 Z " fill="#1D3470" transform="translate(285,276)"/>
<path d="M0 0 C10.30769231 0 10.30769231 0 14 3 C15.59616743 6.19233485 15.51466114 9.53461497 15 13 C13.12984906 15.43119623 11.71861655 16.64069173 9 18 C6.03 18 3.06 18 0 18 C0 12.06 0 6.12 0 0 Z " fill="#F1F9F9" transform="translate(193,275)"/>
<path d="M0 0 C1.98 0 3.96 0 6 0 C6 1.65 6 3.3 6 5 C7.65 5 9.3 5 11 5 C11 6.65 11 8.3 11 10 C9.35 10 7.7 10 6 10 C6.33 13.3 6.66 16.6 7 20 C7.804375 20.268125 8.60875 20.53625 9.4375 20.8125 C10.283125 21.204375 11.12875 21.59625 12 22 C12.33 22.99 12.66 23.98 13 25 C11.42077594 26.57922406 9.80556126 26.207659 7.625 26.25 C6.83351563 26.27578125 6.04203125 26.3015625 5.2265625 26.328125 C3 26 3 26 1.22265625 24.90234375 C-0.61106446 22.04923836 -0.28692732 19.65988633 -0.1875 16.3125 C-0.16042969 15.13300781 -0.13335937 13.95351563 -0.10546875 12.73828125 C-0.07066406 11.83464844 -0.03585937 10.93101562 0 10 C-1.32 10 -2.64 10 -4 10 C-4 8.35 -4 6.7 -4 5 C-2.68 5 -1.36 5 0 5 C0 3.35 0 1.7 0 0 Z " fill="#182F6C" transform="translate(360,272)"/>
<path d="M0 0 C1.98 0 3.96 0 6 0 C6 9.9 6 19.8 6 30 C4.02 30 2.04 30 0 30 C0 20.1 0 10.2 0 0 Z " fill="#162D6B" transform="translate(319,268)"/>
<path d="M0 0 C1.9375 1.0625 1.9375 1.0625 3 3 C3.36528977 6.4093712 3.6140629 8.88023824 1.9375 11.9375 C-1.11976176 13.6140629 -3.5906288 13.36528977 -7 13 C-8.9375 11.9375 -8.9375 11.9375 -10 10 C-10.36528977 6.5906288 -10.6140629 4.11976176 -8.9375 1.0625 C-5.88023824 -0.6140629 -3.4093712 -0.36528977 0 0 Z " fill="#23A8A0" transform="translate(433,246)"/>
<path d="M0 0 C1.98 0 3.96 0 6 0 C6 6.93 6 13.86 6 21 C4.02 21 2.04 21 0 21 C0 14.07 0 7.14 0 0 Z " fill="#132B6A" transform="translate(376,277)"/>
<path d="M0 0 C1.98 0 3.96 0 6 0 C6 6.93 6 13.86 6 21 C4.02 21 2.04 21 0 21 C0 14.07 0 7.14 0 0 Z " fill="#25A9A0" transform="translate(260,277)"/>
<path d="M0 0 C1.98 0 3.96 0 6 0 C6 6.93 6 13.86 6 21 C4.02 21 2.04 21 0 21 C0 14.07 0 7.14 0 0 Z " fill="#25A9A0" transform="translate(220,277)"/>
<path d="M0 0 C2.5625 2.4375 2.5625 2.4375 4 5 C4 5.66 4 6.32 4 7 C-2.27 7 -8.54 7 -15 7 C-11.82991897 -0.92520257 -8.1016141 -2.48251294 0 0 Z " fill="#F4F5F8" transform="translate(403,229)"/>
<path d="M0 0 C1.09570312 0.00902344 2.19140625 0.01804688 3.3203125 0.02734375 C4.16335938 0.03894531 5.00640625 0.05054688 5.875 0.0625 C6.23795952 4.5390007 6.23795952 4.5390007 4.65625 6.8203125 C2.50271998 8.32211633 0.97670533 8.65131241 -1.625 8.9375 C-2.3984375 9.03804687 -3.171875 9.13859375 -3.96875 9.2421875 C-6.125 9.0625 -6.125 9.0625 -7.91796875 7.734375 C-9.125 6.0625 -9.125 6.0625 -8.9375 3.4375 C-7.41982523 -0.99878008 -4.15917498 -0.04424654 0 0 Z " fill="#F6F7F9" transform="translate(302.125,242.9375)"/>
<path d="M0 0 C1.8125 1.125 1.8125 1.125 3 3 C3.39769128 6.18153026 3.55198782 8.12844028 1.8125 10.875 C-0.65507108 12.40659584 -2.14519831 12.42822025 -5 12 C-6.8125 10.875 -6.8125 10.875 -8 9 C-8.39769128 5.81846974 -8.55198782 3.87155972 -6.8125 1.125 C-4.34492892 -0.40659584 -2.85480169 -0.42822025 0 0 Z " fill="#F0F2F5" transform="translate(401,281)"/>
<path d="M0 0 C2 3 2 3 1.75 6.0625 C1 9 1 9 -1 11 C-4 11.25 -4 11.25 -7 11 C-9 9 -9 9 -9.3125 5.5625 C-9 2 -9 2 -7.875 0 C-4.98192987 -1.54297074 -3.06359725 -0.91256088 0 0 Z " fill="#F0F2F5" transform="translate(307,282)"/>
<path d="M0 0 C2.9375 0.8125 2.9375 0.8125 4.9375 3.8125 C4.75 6.375 4.75 6.375 3.9375 8.8125 C0.9375 10.8125 0.9375 10.8125 -2.125 10.625 C-5.0625 9.8125 -5.0625 9.8125 -7.0625 6.8125 C-6.875 4.25 -6.875 4.25 -6.0625 1.8125 C-3.0625 -0.1875 -3.0625 -0.1875 0 0 Z " fill="#ECF7F7" transform="translate(243.0625,281.1875)"/>
<path d="M0 0 C1.4540625 0.0309375 1.4540625 0.0309375 2.9375 0.0625 C3.5625 1.9375 3.5625 1.9375 3.9375 4.0625 C1.9375 6.0625 1.9375 6.0625 -0.6875 6.1875 C-1.47125 6.14625 -2.255 6.105 -3.0625 6.0625 C-3.44468767 4.40635343 -3.77645102 2.73792976 -4.0625 1.0625 C-3.0625 0.0625 -3.0625 0.0625 0 0 Z " fill="#2FADA5" transform="translate(263.0625,266.9375)"/>
<path d="M0 0 C1.4540625 0.0309375 1.4540625 0.0309375 2.9375 0.0625 C3.5625 1.9375 3.5625 1.9375 3.9375 4.0625 C1.9375 6.0625 1.9375 6.0625 -0.6875 6.1875 C-1.47125 6.14625 -2.255 6.105 -3.0625 6.0625 C-3.44468767 4.40635343 -3.77645102 2.73792976 -4.0625 1.0625 C-3.0625 0.0625 -3.0625 0.0625 0 0 Z " fill="#2FADA5" transform="translate(223.0625,266.9375)"/>
<path d="M0 0 C0.78375 0.04125 1.5675 0.0825 2.375 0.125 C2.75718767 1.78114657 3.08895102 3.44957024 3.375 5.125 C2.375 6.125 2.375 6.125 -0.1875 6.1875 C-1.3940625 6.1565625 -1.3940625 6.1565625 -2.625 6.125 C-3.285 4.805 -3.945 3.485 -4.625 2.125 C-2.625 0.125 -2.625 0.125 0 0 Z " fill="#19306D" transform="translate(379.625,266.875)"/>
</svg>
